<svg width="60" height="60" viewBox="0 0 60 60" fill="none" xmlns="http://www.w3.org/2000/svg">
<g clip-path="url(#clip0_1846_412)">
<path d="M57.9957 25.6697C58.0015 25.6279 58.0015 25.5858 57.9957 25.5441C58.0011 25.5101 58.0011 25.4755 57.9957 25.4414L57.5883 22.5088C57.5295 22.1579 57.3723 21.83 57.1344 21.5617L57.0645 21.4818L56.9365 21.3563L49.8829 15.3997L50.0808 15.5937C49.9189 15.4038 49.7157 15.2519 49.4861 15.1492C49.2565 15.0465 49.0062 14.9956 48.7539 15.0003H46.6122C46.2639 14.9935 45.9236 15.1021 45.6461 15.3084C45.3547 15.1033 45.0038 14.9953 44.6451 15.0003H42.5034C42.2225 14.9958 41.9454 15.0642 41.7001 15.1984C41.4549 15.3327 41.2501 15.5281 41.1067 15.7648C40.8855 16.103 40.8023 16.5104 40.8738 16.9059L41.1416 18.7545C40.9642 18.656 40.7635 18.6048 40.5596 18.6062H30.1887C29.8166 18.6085 29.4531 18.7154 29.1411 18.9143C28.8395 19.0994 28.5973 19.3645 28.4428 19.6788L27.6396 19.0056C27.3235 18.7188 26.9063 18.5634 26.4757 18.572H10.2035C9.83012 18.5786 9.46501 18.6809 9.14436 18.8686C8.70569 19.1204 8.38421 19.5296 8.24809 20.0098L3.08012 36.9552C2.98355 37.2344 2.97406 37.5355 3.05284 37.8201C3.13162 38.1046 3.29511 38.3597 3.52243 38.5528C3.58166 38.602 3.64385 38.6477 3.70866 38.6897C3.70866 38.6897 3.60389 38.6212 3.54569 38.5642L10.5993 44.5322C10.8977 44.8015 11.2878 44.952 11.6934 44.9543H28.0936C28.4681 44.9448 28.8335 44.8385 29.1528 44.6462C29.3334 44.5495 29.495 44.422 29.63 44.2696L29.6882 44.1898L29.7813 44.0757L29.8512 43.9501L30.6194 44.6006C30.9135 44.8592 31.2951 45.0015 31.6902 45H48.1253C48.4994 44.9878 48.8641 44.8817 49.1845 44.6919C49.361 44.5892 49.5217 44.4624 49.6618 44.3153L49.7199 44.2354L49.813 44.1214C49.8625 44.0491 49.9055 43.9728 49.941 43.8931C49.9791 43.8239 50.0103 43.7513 50.0342 43.6763L54.7482 28.2029V28.066C54.754 28.0129 54.754 27.9593 54.7482 27.9062V27.8035C54.7539 27.7695 54.7539 27.7349 54.7482 27.7008C54.7535 27.6287 54.7535 27.5562 54.7482 27.484H56.2614C56.393 27.4958 56.5255 27.4958 56.6571 27.484H56.7619C56.8471 27.4591 56.9291 27.4246 57.0063 27.3813H57.1227L57.3322 27.2215L57.4253 27.1531L57.5883 26.9476V26.8792L57.7047 26.6852C57.6982 26.6475 57.6982 26.6089 57.7047 26.5711C57.6985 26.5526 57.6985 26.5326 57.7047 26.5141C57.7294 26.4472 57.7489 26.3785 57.7629 26.3087C57.7575 26.2861 57.7575 26.2627 57.7629 26.2402C57.7572 26.2062 57.7572 26.1715 57.7629 26.1375C57.7629 26.1375 57.9957 25.6925 57.9957 25.6697Z" fill="#263238"/>
<path d="M26.9529 19.8729C27.0147 19.9277 27.0578 19.9997 27.0765 20.0793C27.0953 20.1589 27.0887 20.2422 27.0577 20.3179L21.9013 37.252C21.8364 37.4368 21.7036 37.5914 21.5289 37.6856C21.3867 37.7788 21.2222 37.8339 21.0516 37.8454H4.6631C4.52314 37.8388 4.39055 37.7819 4.29063 37.6856C4.23119 37.6317 4.18948 37.5616 4.17081 37.4845C4.15215 37.4072 4.15741 37.3263 4.18588 37.252L9.35385 20.3179C9.4134 20.1307 9.54206 19.972 9.71468 19.8729C9.85918 19.7864 10.0229 19.7355 10.1919 19.7246H26.5804C26.7193 19.7259 26.8524 19.7789 26.9529 19.8729ZM18.3978 33.8401L21.4823 23.7298H12.8457L9.77286 33.8401H18.3978ZM42.5965 20.0441C42.6524 20.1078 42.7223 20.1583 42.8009 20.1919C42.8795 20.2255 42.9647 20.2412 43.0505 20.2381H45.1805C45.2616 20.2388 45.3415 20.2193 45.4129 20.1814C45.4841 20.1435 45.5443 20.0883 45.5879 20.0212C45.6257 19.9688 45.6524 19.9095 45.6664 19.8468C45.6804 19.784 45.6814 19.7192 45.6693 19.6561L45.2503 16.6436C45.2104 16.5041 45.1388 16.3754 45.0408 16.267C44.9848 16.2033 44.915 16.1528 44.8364 16.1192C44.7578 16.0856 44.6725 16.0698 44.5869 16.073H42.4568C42.3757 16.0722 42.2957 16.0917 42.2245 16.1297C42.1532 16.1676 42.0929 16.2227 42.0495 16.2898C41.9679 16.4496 41.933 16.5523 41.9679 16.6436L42.3986 19.6561C42.4207 19.8028 42.4901 19.9387 42.5965 20.0441ZM49.3591 16.6207C49.3192 16.4813 49.2475 16.3526 49.1496 16.2442C49.096 16.1807 49.0282 16.1302 48.9515 16.0966C48.8748 16.0629 48.7912 16.0471 48.7073 16.0502H46.5656C46.4858 16.048 46.4069 16.0669 46.3372 16.1051C46.2676 16.1433 46.2097 16.1992 46.1699 16.267C46.0924 16.3682 46.0589 16.4954 46.0768 16.6207L46.5074 19.6333C46.5344 19.7784 46.603 19.913 46.7053 20.0212C46.7622 20.0837 46.8322 20.1334 46.9106 20.1669C46.989 20.2003 47.0737 20.2168 47.1592 20.2152H49.3009C49.3805 20.2163 49.4589 20.1968 49.5283 20.1587C49.5978 20.1207 49.6559 20.0654 49.6967 19.9984C49.7372 19.9474 49.7654 19.8881 49.7795 19.8249C49.7937 19.7617 49.7931 19.6962 49.7781 19.6333L49.3591 16.6207ZM40.7225 21.1852L40.513 19.7017H30.1887C30.0266 19.7105 29.8698 19.7617 29.7347 19.8501C29.649 19.8959 29.5744 19.9594 29.5161 20.0363C29.4579 20.1131 29.4173 20.2014 29.3972 20.2951L28.5359 23.125C28.5015 23.1958 28.4897 23.2751 28.5022 23.3525C28.5147 23.4299 28.5508 23.5018 28.6057 23.5587C28.7039 23.6491 28.832 23.7019 28.9666 23.707H41.514L38.4295 33.8173H25.917C25.7556 33.8209 25.5985 33.8683 25.4631 33.9541C25.2984 34.0567 25.1782 34.2151 25.1255 34.3992L24.2525 37.2292C24.224 37.3018 24.2165 37.3807 24.2309 37.4572C24.2453 37.5337 24.2809 37.6048 24.334 37.6627C24.4291 37.7593 24.5582 37.8164 24.6948 37.8225H41.1299C41.2999 37.8082 41.4637 37.7533 41.6071 37.6627C41.779 37.5681 41.9079 37.4132 41.9679 37.2292L46.6936 21.7557H41.3743C41.2899 21.7574 41.2061 21.742 41.1281 21.7106C41.05 21.6792 40.9793 21.6324 40.9204 21.5731C40.8242 21.4697 40.7561 21.3441 40.7225 21.208V21.1852Z" fill="white"/>
</g>
<defs>
<clipPath id="clip0_1846_412">
<rect width="55" height="30" fill="white" transform="translate(3 15)"/>
</clipPath>
</defs>
</svg>
