<svg width="60" height="60" viewBox="0 0 60 60" fill="none" xmlns="http://www.w3.org/2000/svg">
<g clip-path="url(#clip0_1846_432)">
<path d="M48.4375 16.8437C48.4375 17.3097 48.8199 17.6875 49.2917 17.6875H50.1458C50.6176 17.6875 51 17.3097 51 16.8437C51 16.3778 50.6176 16 50.1458 16H49.2917C48.8199 16 48.4375 16.3778 48.4375 16.8437Z" fill="#263238"/>
<path d="M23.6667 43H27.8161L26.6081 41.8067C26.2877 41.4903 25.8532 41.3125 25.4001 41.3125H23.6667C17.0623 41.3125 11.7083 36.0239 11.7083 29.5C11.7083 22.9761 17.0623 17.6875 23.6667 17.6875H37.3333C43.9378 17.6875 49.2917 22.9761 49.2917 29.5C49.2917 36.0239 43.9378 41.3125 37.3333 41.3125H32.2209C31.5413 41.3125 30.8895 41.0458 30.4089 40.5711L28.9937 39.1732C28.1928 38.382 27.1064 37.9375 25.9737 37.9375H23.6667C18.9492 37.9375 15.125 34.1599 15.125 29.5C15.125 24.8401 18.9492 21.0625 23.6667 21.0625H37.3333C42.0508 21.0625 45.875 24.8401 45.875 29.5C45.875 34.1599 42.0508 37.9375 37.3333 37.9375H34.0507C33.371 37.9375 32.7193 37.6708 32.2387 37.1961L30.8234 35.7982C30.0225 35.007 28.9362 34.5625 27.8035 34.5625H23.6667C20.8362 34.5625 18.5417 32.2959 18.5417 29.5C18.5417 26.7041 20.8362 24.4375 23.6667 24.4375H37.3333C40.1638 24.4375 42.4583 26.7041 42.4583 29.5C42.4583 32.2618 40.2194 34.5072 37.4367 34.5615L37.4361 34.5625H36.1861C35.5064 34.5625 34.8547 34.2958 34.3741 33.8211L32.9588 32.4232C32.3017 31.7739 31.4524 31.3582 30.5429 31.2299L30.5 31.1875H23.6667C22.7232 31.1875 21.9583 30.432 21.9583 29.5C21.9583 28.568 22.7232 27.8125 23.6667 27.8125H37.3333C38.2768 27.8125 39.0417 28.568 39.0417 29.5C39.0417 30.432 38.2768 31.1875 37.3333 31.1875H33.9167L35.1247 32.3808C35.445 32.6972 35.8795 32.875 36.3326 32.875H37.3333C39.2203 32.875 40.75 31.3639 40.75 29.5C40.75 27.6361 39.2203 26.125 37.3333 26.125H23.6667C21.7797 26.125 20.25 27.6361 20.25 29.5C20.25 31.3639 21.7797 32.875 23.6667 32.875H29.9389C30.6186 32.875 31.2703 33.1417 31.7509 33.6164L33.1662 35.0143C33.9671 35.8055 35.0534 36.25 36.1861 36.25H37.7604V36.237C41.3354 36.0193 44.1667 33.0862 44.1667 29.5C44.1667 25.7721 41.1072 22.75 37.3333 22.75H23.6667C19.8928 22.75 16.8333 25.7721 16.8333 29.5C16.8333 33.228 19.8928 36.25 23.6667 36.25H27.8035C28.4831 36.25 29.1349 36.5167 29.6155 36.9914L31.0307 38.3893C31.8317 39.1805 32.918 39.625 34.0507 39.625H37.3333C42.9943 39.625 47.5833 35.0919 47.5833 29.5C47.5833 23.9081 42.9943 19.375 37.3333 19.375H23.6667C18.0057 19.375 13.4167 23.9081 13.4167 29.5C13.4167 35.0919 18.0057 39.625 23.6667 39.625H25.9737C26.6534 39.625 27.3051 39.8917 27.7857 40.3664L29.201 41.7643C30.0019 42.5555 31.0882 43 32.2209 43H37.3333C44.8812 43 51 36.9558 51 29.5C51 22.0442 44.8812 16 37.3333 16L23.6667 16C16.1188 16 10 22.0442 10 29.5C10 36.9558 16.1188 43 23.6667 43Z" fill="#263238"/>
</g>
<defs>
<clipPath id="clip0_1846_432">
<rect width="41" height="27" fill="white" transform="translate(10 16)"/>
</clipPath>
</defs>
</svg>
