<svg width="60" height="60" viewBox="0 0 60 60" fill="none" xmlns="http://www.w3.org/2000/svg">
<g clip-path="url(#clip0_1846_436)">
<path d="M16.3431 20C14.3124 20 12.3649 20.8067 10.9289 22.2426L6.24264 26.9289C4.8067 28.3649 4 30.3124 4 32.3431C4 36.5719 7.42809 40 11.6569 40C13.6876 40 15.6351 39.1933 17.0711 37.7573L20.3126 34.5158C20.3126 34.5157 20.3127 34.5159 20.3126 34.5158L29.7573 25.0711C30.4431 24.3853 31.3733 24 32.3431 24C33.9669 24 35.3435 25.0583 35.8207 26.5227L38.8015 23.542C37.4417 21.4122 35.0573 20 32.3431 20C30.3124 20 28.3649 20.8067 26.9289 22.2426L14.2427 34.9289C13.5569 35.6147 12.6267 36 11.6569 36C9.63723 36 8 34.3628 8 32.3431C8 31.3733 8.38527 30.4431 9.07107 29.7573L13.7573 25.0711C14.4431 24.3853 15.3733 24 16.3431 24C17.9669 24 19.3435 25.0583 19.8207 26.5228L22.8015 23.542C21.4417 21.4123 19.0574 20 16.3431 20Z" fill="#263238"/>
<path d="M30.2427 34.9289C29.5569 35.6147 28.6268 36 27.6569 36C26.0334 36 24.6569 34.942 24.1795 33.4778L21.1989 36.4585C22.5587 38.5879 24.9429 40 27.6569 40C29.6877 40 31.6352 39.1933 33.0711 37.7573L45.7574 25.0711C46.4432 24.3853 47.3733 24 48.3432 24C50.3629 24 52 25.6372 52 27.6569C52 28.6267 51.6148 29.5569 50.929 30.2427L46.2427 34.9289C45.5569 35.6147 44.6268 36 43.6569 36C42.0332 36 40.6567 34.9418 40.1794 33.4775L37.1987 36.4582C38.5585 38.5879 40.9428 40 43.6569 40C45.6876 40 47.6352 39.1933 49.0711 37.7573L53.7574 33.0711C55.1933 31.6351 56 29.6876 56 27.6569C56 23.4281 52.572 20 48.3432 20C46.3125 20 44.3649 20.8067 42.929 22.2426L30.2427 34.9289Z" fill="#263238"/>
</g>
<defs>
<clipPath id="clip0_1846_436">
<rect width="52" height="20" fill="white" transform="translate(4 20)"/>
</clipPath>
</defs>
</svg>
