<svg width="60" height="60" viewBox="0 0 60 60" fill="none" xmlns="http://www.w3.org/2000/svg">
<g clip-path="url(#clip0_1846_409)">
<path fill-rule="evenodd" clip-rule="evenodd" d="M19.9858 20.1146L10 30C11.9973 31.9773 14.279 33.6437 16.7666 34.9474C17.4542 36.753 18.532 38.4463 20 39.8995C25.5229 45.3668 34.4772 45.3668 40 39.8995C41.468 38.4463 42.5458 36.753 43.2334 34.9473C45.721 33.6437 48.0027 31.9773 50 30L40.0223 20.1227C40.0149 20.1153 40.0075 20.1079 40 20.1005C34.4772 14.6332 25.5229 14.6332 20 20.1005C19.9953 20.1052 19.9905 20.1099 19.9858 20.1146ZM39.0445 36.7309C36.1345 37.7031 33.0797 38.201 30 38.201C26.9203 38.201 23.8656 37.7031 20.9556 36.7309C21.2709 37.145 21.619 37.5424 22 37.9196C26.4183 42.2935 33.5817 42.2935 38 37.9196C38.381 37.5424 38.7292 37.145 39.0445 36.7309ZM22.2051 21.8824C22.9554 22.3731 23.7532 22.793 24.588 23.1354C26.3038 23.8389 28.1428 24.201 30 24.201C31.8572 24.201 33.6962 23.8389 35.412 23.1354C36.2468 22.793 37.0446 22.3731 37.795 21.8824C33.4318 17.7725 26.5682 17.7725 22.2051 21.8824Z" fill="#263238"/>
</g>
<defs>
<clipPath id="clip0_1846_409">
<rect width="40" height="28" fill="white" transform="translate(10 16)"/>
</clipPath>
</defs>
</svg>
