<svg width="60" height="60" viewBox="0 0 60 60" fill="none" xmlns="http://www.w3.org/2000/svg">
<g clip-path="url(#clip0_1846_416)">
<path d="M50.9965 18.5647C50.9965 18.5985 50.9965 18.6408 50.9877 18.6661C50.9437 18.9958 50.9437 19.3255 50.9701 19.6637C50.9877 19.7482 51.0053 19.8327 51.0758 19.9004C51.1903 20.0272 51.3664 20.0018 51.4369 19.8496C51.4722 19.7736 51.4722 19.6975 51.4545 19.6214C51.3664 19.3002 51.3488 18.962 51.34 18.6323C51.34 18.6154 51.34 18.5901 51.34 18.5647C51.4369 18.5563 51.525 18.5478 51.6042 18.5478C51.6659 18.5393 51.7188 18.5309 51.7628 18.5055C51.8949 18.4379 51.8949 18.2942 51.754 18.2266C51.7011 18.2012 51.6307 18.1927 51.569 18.1927C51.3488 18.2012 51.1287 18.2012 50.9084 18.2012C50.8292 18.2012 50.7499 18.2097 50.6706 18.2181C50.6266 18.2266 50.5737 18.2266 50.5385 18.2519C50.4768 18.2773 50.4417 18.3196 50.4417 18.3787C50.4504 18.4379 50.4768 18.4717 50.5385 18.4971C50.5737 18.5224 50.6178 18.5309 50.6618 18.5309C50.7675 18.5393 50.882 18.5563 50.9965 18.5647ZM53.4186 18.9536C53.4186 18.962 53.4274 18.9705 53.4274 18.9705C53.4627 19.1987 53.4979 19.4185 53.5243 19.6383C53.5332 19.7144 53.542 19.782 53.5948 19.8412C53.7093 19.9849 53.8855 19.968 53.9647 19.8158C54 19.7397 54.0087 19.6637 53.9912 19.5791C53.9383 19.3255 53.9119 19.0719 53.859 18.8268C53.8238 18.6746 53.7798 18.5309 53.7357 18.3956C53.7093 18.3111 53.6477 18.2519 53.542 18.2435C53.4363 18.2266 53.357 18.2773 53.3129 18.3534C53.2601 18.421 53.2161 18.4886 53.1808 18.5647C53.1192 18.7 53.0663 18.8352 52.9959 18.962C52.987 18.9958 52.9782 19.0212 52.9606 19.0465C52.9519 19.0296 52.9431 19.0212 52.9431 19.0212C52.8285 18.8099 52.7228 18.5985 52.6083 18.3956C52.5907 18.3787 52.5819 18.3618 52.5731 18.3449C52.5203 18.2688 52.4586 18.2266 52.3617 18.2266C52.2736 18.235 52.2031 18.2857 52.1592 18.3618C52.1415 18.3956 52.1415 18.421 52.1327 18.4548C52.0975 18.7253 52.0534 18.9958 52.0182 19.2663C52.0006 19.4185 51.9918 19.5707 51.9918 19.7228C51.983 19.7566 51.9918 19.7989 52.0094 19.8327C52.027 19.9003 52.0799 19.9426 52.1503 19.9511C52.2384 19.9595 52.3 19.9342 52.3265 19.8665C52.3529 19.8158 52.3617 19.7736 52.3705 19.7313C52.4058 19.5791 52.4322 19.4354 52.4586 19.2917C52.4762 19.2072 52.485 19.1395 52.5115 19.0465C52.5291 19.0804 52.5466 19.1057 52.5643 19.1311C52.6435 19.2325 52.7228 19.334 52.8197 19.4185C52.9166 19.4861 52.9959 19.4777 53.0751 19.4016C53.0928 19.3847 53.1016 19.3762 53.1192 19.3593C53.1985 19.241 53.2954 19.1226 53.3746 19.0043C53.3922 18.9874 53.401 18.9705 53.4186 18.9536Z" fill="#263238"/>
<path d="M33.1244 18.7308C33.0632 18.8915 33.0515 19.0072 33.0798 19.1034C33.111 19.2342 33.192 19.277 33.302 19.2438C34.3366 18.9982 36.6051 19.6952 37.445 19.8894C37.6431 19.9302 37.8042 19.6848 37.6691 19.4647C37.4718 19.2517 35.2043 18.3394 34.3391 18.2896C33.9999 18.2712 33.3936 18.1878 33.1244 18.7308Z" fill="#263238"/>
<path d="M41.9904 15.7776C42.1006 15.8386 42.1622 15.8969 42.1927 15.962C42.238 16.0474 42.2141 16.1065 42.1379 16.1366C41.4541 16.4569 40.5441 17.836 40.1768 18.3117C40.0877 18.4211 39.8823 18.3575 39.8513 18.1776C39.8577 17.9741 40.6643 16.4775 41.1145 16.0699C41.2915 15.9107 41.5837 15.5984 41.9904 15.7776Z" fill="#263238"/>
<path d="M36.5445 15.0987C36.6769 15.0029 36.8146 14.9693 36.8849 15.0316C37.9167 15.8785 38.4638 17.2196 38.8026 18.4474C38.8154 18.476 38.8162 18.5171 38.806 18.5599C38.8017 18.5965 38.7739 18.6352 38.7296 18.6651C38.6824 18.6981 38.6417 18.7082 38.6225 18.6797C38.1703 18.0894 35.5875 15.7925 36.5445 15.0987Z" fill="#263238"/>
<path d="M14.6952 29.7818C14.9425 29.6051 15.2114 29.458 15.4959 29.3438C15.7935 29.2622 16.1107 29.2757 16.3997 29.3825C16.6885 29.4892 16.9334 29.6833 17.0971 29.9355C17.2435 30.187 17.3008 30.4774 17.2604 30.7629C17.2199 31.0484 17.084 31.3135 16.8729 31.5184C16.7093 31.6845 16.5235 31.8292 16.3205 31.9488C15.4158 32.5097 14.5031 33.0399 13.5904 33.6008C13.4036 33.7412 13.2055 33.8672 12.9979 33.9774C12.6822 34.1285 12.3213 34.169 11.9778 34.0918C11.6342 34.0147 11.3295 33.8247 11.1165 33.5548C10.9572 33.3636 10.8228 33.1546 10.7162 32.9323C9.8515 31.188 8.95481 29.4514 8.12217 27.6763C7.73787 26.908 7.42563 26.0243 7.12139 25.1713C6.98977 24.9235 6.96406 24.6362 7.04976 24.3705C7.13545 24.1047 7.32577 23.8816 7.58025 23.7484C7.83473 23.6153 8.13327 23.5827 8.4124 23.6576C8.69152 23.7325 8.92921 23.9089 9.0749 24.1493C9.52271 24.7205 9.91911 25.3272 10.2598 25.9628C11.1245 27.4996 11.9491 29.0364 12.7818 30.5272C12.8302 30.6096 12.8837 30.689 12.9419 30.7654C13.5686 30.5125 14.158 30.1818 14.6952 29.7818Z" fill="#263238"/>
<path d="M23.6354 29.2457C21.6579 31.4663 18.3433 30.9054 16.678 28.0469C15.4931 26.0183 15.2849 22.668 17.8629 20.5549C18.4135 20.1125 19.0717 19.8111 19.7764 19.6789C20.6404 19.56 21.5214 19.7063 22.2936 20.0969C23.0657 20.4874 23.6895 21.1023 24.0757 21.8535C25.4848 24.3124 25.2847 27.4475 23.6354 29.2457ZM22.8347 24.0665C22.6247 23.4623 22.2032 22.9464 21.6418 22.6065C21.3242 22.3892 20.9382 22.2836 20.5489 22.3074C20.1595 22.3311 19.7906 22.4829 19.5042 22.7371C18.3593 23.7131 18.1191 26.026 18.9517 27.4015C19.0579 27.6258 19.2137 27.8251 19.4085 27.9855C19.6033 28.1459 19.8323 28.2636 20.0793 28.3301C20.3264 28.3968 20.5857 28.4107 20.839 28.3711C21.0923 28.3314 21.3335 28.2392 21.5458 28.1007C22.1664 27.6389 22.6217 27.003 22.8484 26.2814C23.0751 25.5598 23.062 24.7883 22.8108 24.0742L22.8347 24.0665Z" fill="#263238"/>
<path d="M31.7055 25.0348C31.5031 25.0766 31.294 25.0791 31.0904 25.0421C30.887 25.0051 30.6932 24.9295 30.5207 24.8197C30.3697 24.7368 30.2397 24.6228 30.14 24.4859C30.0405 24.349 29.9737 24.1927 29.9446 24.028C29.9155 23.8635 29.9248 23.6947 29.9718 23.534C30.0188 23.3732 30.1024 23.2245 30.2164 23.0984C30.4152 22.845 30.6973 22.6637 31.0171 22.5836C31.8518 22.351 32.7112 22.2093 33.579 22.161C33.7697 22.1397 33.9629 22.1552 34.1472 22.2065C34.3316 22.2579 34.5033 22.3441 34.6525 22.4601C34.8016 22.576 34.9252 22.7194 35.0158 22.8818C35.1064 23.0442 35.1623 23.2224 35.1802 23.4058C35.4304 24.3068 35.4578 25.2514 35.2603 26.1644C34.5398 29.1151 32.0578 30.1294 29.2717 29.1842C28.4896 28.9315 27.8039 28.4607 27.3022 27.8318C26.633 27.0746 26.1586 26.1771 25.9171 25.2116C25.7214 24.3518 25.7428 23.4596 25.9797 22.6095C26.2164 21.7593 26.6616 20.9758 27.2781 20.3244C27.8632 19.6165 28.6226 19.0593 29.4879 18.7031C30.0346 18.4138 30.6744 18.3316 31.2813 18.4726C31.4189 18.5091 31.5439 18.5804 31.6432 18.6789C31.7425 18.7775 31.8125 18.8997 31.846 19.033C31.8795 19.1662 31.8752 19.3057 31.8336 19.4368C31.792 19.568 31.7147 19.6861 31.6095 19.7789C31.4096 19.9526 31.1924 20.107 30.961 20.2399C30.2492 20.675 29.6298 21.2355 29.1356 21.892C28.8116 22.3168 28.5885 22.8046 28.482 23.321C28.3755 23.8374 28.3881 24.3699 28.5191 24.8812C28.7007 25.5782 29.1036 26.2039 29.672 26.6715C31.4333 28.2084 33.7231 26.7253 33.3228 24.6275C32.7384 24.7659 32.226 24.9119 31.7055 25.0348Z" fill="#263238"/>
<path d="M42.466 29.3686C39.864 30.9055 36.9017 29.3686 36.2532 26.1413C35.7809 23.8361 36.6776 20.6087 39.816 19.3793C40.4838 19.1233 41.208 19.0335 41.9216 19.118C42.779 19.2687 43.5655 19.6738 44.1702 20.2762C44.7748 20.8787 45.1674 21.6481 45.2922 22.476C45.8206 25.2192 44.6197 28.1469 42.466 29.3686ZM43.3708 24.1972C43.37 23.5589 43.1347 22.9412 42.7062 22.4529C42.4772 22.1509 42.1461 21.9346 41.7695 21.8406C41.3927 21.7468 40.9938 21.7812 40.6406 21.9381C39.2315 22.5221 38.2388 24.6429 38.5991 26.2028C38.6266 26.4476 38.7094 26.6837 38.8419 26.8946C38.9744 27.1054 39.1532 27.2859 39.366 27.4235C39.5787 27.5611 39.8202 27.6524 40.0736 27.6911C40.327 27.7298 40.5861 27.7149 40.8328 27.6474C41.5776 27.3977 42.2225 26.931 42.6774 26.3124C43.1325 25.6939 43.3749 24.9544 43.3708 24.1972Z" fill="#263238"/>
<path d="M47.9235 30.0141C47.8843 30.2953 47.7302 30.5501 47.4952 30.7223C47.2602 30.8945 46.9636 30.9701 46.6706 30.9324C46.3776 30.8947 46.1122 30.7468 45.9328 30.5212C45.7533 30.2957 45.6746 30.011 45.7139 29.7298C45.7531 29.4485 45.9072 29.1938 46.1422 29.0216C46.3772 28.8494 46.6738 28.7738 46.9668 28.8115C47.2598 28.8492 47.5252 28.9971 47.7047 29.2226C47.8841 29.4482 47.9629 29.7329 47.9235 30.0141ZM47.227 19.6482C47.3793 19.425 47.6027 19.255 47.8638 19.1636C48.125 19.0722 48.4099 19.0643 48.6761 19.141C48.9468 19.206 49.1859 19.3583 49.3535 19.5723C49.5211 19.7863 49.607 20.0491 49.5969 20.3167C49.5616 20.7459 49.4947 21.1721 49.3967 21.5922C49.1325 23.0138 48.8763 24.4354 48.5961 25.8416C48.468 26.4026 48.2999 26.9404 48.1157 27.509C48.0516 27.6868 47.9446 27.8474 47.8035 27.9778C47.7157 28.0759 47.6037 28.1511 47.4776 28.1965C47.3515 28.242 47.2155 28.2561 47.0822 28.2377C46.949 28.2193 46.8226 28.169 46.715 28.0913C46.6073 28.0136 46.5219 27.9112 46.4665 27.7934C46.3713 27.5821 46.3196 27.355 46.3143 27.1249C46.3143 26.172 46.3143 25.2115 46.3784 24.251C46.4872 22.8802 46.7013 21.5189 47.0189 20.1784C47.0563 19.9988 47.1267 19.827 47.227 19.6712V19.6482Z" fill="#263238"/>
<path fill-rule="evenodd" clip-rule="evenodd" d="M11.3126 36.1889C11.2181 36.3915 11.1922 36.6173 11.2384 36.8346C11.2691 37.121 11.3366 37.4028 11.4393 37.6734C11.5676 38.0048 11.7111 38.3325 11.8881 38.7364C11.9288 38.8293 11.9713 38.9263 12.0158 39.0284C12.2544 39.5756 12.5539 40.2749 12.9533 41.2869C13.0663 41.5744 13.1667 41.8643 13.2678 42.1562C13.3086 42.2741 13.3496 42.3924 13.3916 42.5109C13.5419 42.9325 13.8007 43.3112 14.1436 43.6114C14.2893 43.7763 14.4824 43.8966 14.699 43.9567C14.9199 44.018 15.1547 44.0141 15.3732 43.9455C15.5917 43.8769 15.7836 43.7468 15.924 43.5721C16.0616 43.4008 16.1435 43.1944 16.1594 42.9787C16.2487 42.5586 16.2182 42.123 16.071 41.718C15.8375 41.0455 15.5714 40.3721 15.2645 39.7134L15.2631 39.7105C14.7583 38.6799 14.2452 37.6565 13.7078 36.6326L13.7038 36.6255C13.5465 36.3587 13.3421 36.1203 13.0997 35.9208C12.9423 35.7428 12.7253 35.6227 12.4856 35.5813C12.2408 35.5391 11.9883 35.5817 11.7732 35.7015C11.5697 35.8131 11.4084 35.9837 11.3126 36.1889Z" fill="#263238"/>
<path fill-rule="evenodd" clip-rule="evenodd" d="M19.0224 33.6513C18.2309 33.4546 17.4043 33.4259 16.6002 33.5674C15.9774 33.6262 15.3648 33.7641 14.9395 34.0372C14.7231 34.1762 14.5482 34.3547 14.4509 34.5816C14.3531 34.8097 14.3406 35.0705 14.4208 35.3612C14.5672 35.8936 14.7572 36.4113 14.9467 36.9273L14.9773 37.0108L14.9781 37.0127C15.5484 38.5117 16.1241 40.0057 16.7051 41.4945C16.7729 41.7291 16.8687 41.9555 16.9906 42.169L16.9929 42.1729C17.154 42.4381 17.3606 42.6753 17.604 42.8746C17.7257 42.9841 17.8762 43.0599 18.0395 43.0938C18.2043 43.1279 18.3757 43.118 18.535 43.0651C18.6944 43.0121 18.8356 42.9182 18.9431 42.7935C19.049 42.6708 19.1182 42.5231 19.1437 42.3658C19.2487 41.9386 19.2151 41.4907 19.0472 41.0824C18.9948 40.945 18.9537 40.8045 18.9104 40.6567C18.896 40.6074 18.8814 40.5572 18.8659 40.5061C20.1958 40.0072 21.6109 39.3363 22.1085 37.7756C22.3033 37.2362 22.3195 36.6522 22.1549 36.1036C21.9901 35.5544 21.6521 35.0676 21.1873 34.7102C20.5548 34.21 19.8159 33.8485 19.0224 33.6513ZM16.8285 35.5657C16.8547 35.5584 16.881 35.5517 16.9075 35.5454C17.7733 35.4148 18.6591 35.5889 19.4019 36.0355C19.7292 36.2539 19.8633 36.4967 19.8863 36.7303C19.9101 36.9708 19.8189 37.2314 19.6359 37.4819C19.2901 37.9551 18.6589 38.3339 18.0888 38.4045C17.6732 37.4858 17.2511 36.53 16.8285 35.5657Z" fill="#263238"/>
<path d="M24.2991 31.9699C25.2417 31.5521 26.4092 31.4799 27.3228 31.7737C27.5529 31.838 27.7525 31.9771 27.8876 32.1673C28.0217 32.3562 28.0836 32.5839 28.0629 32.8116C28.0616 32.9594 28.0238 33.1048 27.9527 33.2359C27.8803 33.3694 27.7755 33.4843 27.6471 33.5707C27.5187 33.6571 27.3706 33.7127 27.2151 33.7325C27.0596 33.7524 26.9015 33.7361 26.754 33.6849L26.7428 33.681L26.7322 33.6757C26.6568 33.6378 26.5766 33.6092 26.4937 33.5906L26.4884 33.5895C25.8457 33.4257 25.2395 33.6971 25.0181 34.0307C24.9125 34.1898 24.8994 34.3503 24.9873 34.4964C25.0815 34.6528 25.3126 34.8283 25.7801 34.9534C25.9087 34.9873 26.0405 35.0199 26.1741 35.0532C26.5438 35.145 26.928 35.2405 27.2995 35.3728L27.3009 35.3733C29.0148 35.9992 29.653 37.2954 29.4345 38.5146C29.2184 39.7203 28.1693 40.8175 26.5916 41.0763C26.0176 41.1985 25.4201 41.1747 24.8585 41.0073C24.2954 40.8395 23.7879 40.5332 23.3863 40.1187L23.3758 40.1079C23.2491 39.9518 23.1638 39.7684 23.126 39.5737C23.0912 39.3981 23.1095 39.2166 23.1787 39.0505C23.2474 38.8855 23.3637 38.7427 23.5138 38.6386C23.6723 38.5206 23.8634 38.4499 24.0634 38.4351C24.2628 38.4204 24.4623 38.462 24.6373 38.5546C24.8121 38.6357 24.9748 38.7391 25.1207 38.8621L25.1235 38.8644C25.3817 39.091 25.6941 39.1501 25.9937 39.0954C26.2977 39.0399 26.5835 38.8673 26.7673 38.6382C26.95 38.4106 27.0233 38.1403 26.9363 37.8778C26.8487 37.6135 26.5854 37.3173 26.007 37.0697C25.8558 37.008 25.699 36.9583 25.5359 36.91C25.492 36.8969 25.4472 36.8839 25.402 36.8707C25.2814 36.8356 25.1573 36.7994 25.0357 36.7596C24.9519 36.7321 24.8687 36.7062 24.7864 36.6804C24.5614 36.6101 24.3421 36.5415 24.131 36.4496C23.6715 36.2994 23.2746 36.0112 22.9992 35.6274C22.7227 35.2421 22.5836 34.7813 22.6025 34.3139C22.604 33.1748 23.3515 32.39 24.2991 31.9699Z" fill="#263238"/>
<path d="M36.2488 31.8485C36.066 31.7628 35.8639 31.7221 35.6607 31.7301C35.4575 31.7381 35.2595 31.7946 35.0848 31.8944C34.9111 31.9935 34.7656 32.1324 34.6614 32.2985C34.5659 32.4384 34.4998 32.5949 34.4668 32.7592C34.4338 32.9234 34.4346 33.0921 34.4691 33.2559C34.5031 33.4664 34.5408 33.6711 34.5781 33.873C34.6398 34.2071 34.6998 34.5337 34.7394 34.8667L34.7409 34.8751C34.8311 35.3973 34.8783 35.9254 34.8825 36.4547L34.8829 36.4622C34.9138 37.0337 34.7108 37.5942 34.3177 38.0246L34.3115 38.0322C34.1836 38.1895 34.0126 38.3096 33.8175 38.379C33.6225 38.4484 33.4113 38.4644 33.2074 38.4251C33.0035 38.3858 32.815 38.2929 32.663 38.1566C32.511 38.0204 32.4013 37.8457 32.3466 37.6532C32.2298 37.2474 32.1622 36.83 32.145 36.4094L32.3445 33.3602C32.3475 33.3204 32.3508 33.2796 32.3543 33.2383C32.3619 33.1457 32.3696 33.0514 32.3729 32.9634C32.3776 32.834 32.3735 32.7008 32.3421 32.5748C32.31 32.446 32.2488 32.3235 32.1403 32.2192C32.0329 32.1159 31.8878 32.0397 31.7053 31.9878C31.3753 31.8961 31.0963 31.899 30.8638 31.9937C30.6311 32.0885 30.4717 32.2643 30.3589 32.4674C30.247 32.6689 30.1751 32.9073 30.1207 33.1462C30.0803 33.3234 30.0479 33.5095 30.0171 33.6866C30.0064 33.7476 29.996 33.8075 29.9855 33.8657L29.9852 33.8674C29.8203 34.8386 29.7712 35.8248 29.8389 36.8067C29.8515 37.3373 29.9668 37.8611 30.179 38.3513C30.4183 38.9837 30.8519 39.5317 31.4224 39.9229C31.9941 40.3148 32.6763 40.5308 33.3788 40.5422C34.0812 40.5536 34.7707 40.3599 35.356 39.9868C35.9402 39.6142 36.393 39.0802 36.6545 38.4555C37.0202 37.6596 37.192 36.7941 37.1565 35.9249C37.135 35.2903 37.0991 34.6509 37.0633 34.0146C37.0457 33.7026 37.0281 33.3911 37.0124 33.0816C37.0045 32.7713 36.8979 32.4707 36.7068 32.2201C36.5886 32.0618 36.4312 31.934 36.2488 31.8485Z" fill="#263238"/>
<path d="M42.7174 36.6296C42.6988 36.6522 42.6793 36.6756 42.6589 36.6999C42.5102 35.8768 42.3725 35.054 42.2345 34.23C42.185 33.9343 42.1352 33.6374 42.0852 33.3413L42.0796 33.3083L42.0613 33.2797C42.0269 33.226 42.0234 33.1734 42.0234 33.0611V33.0481L42.0214 33.0352C41.984 32.8033 41.8747 32.5874 41.7077 32.4159C41.5412 32.2449 41.325 32.1259 41.0871 32.0742C40.8496 32.018 40.6 32.0304 40.3698 32.1099C40.1402 32.1892 39.94 32.3316 39.7943 32.5195C39.6732 32.6636 39.5739 32.8235 39.4995 32.9944C39.3306 33.3624 39.1603 33.7314 38.9895 34.1013L38.9865 34.1077C38.5601 35.0313 38.1308 35.9611 37.7139 36.8982L37.7127 36.9012C37.4568 37.5088 37.2456 38.149 37.0351 38.7873C36.993 38.9147 36.951 39.042 36.9086 39.1691C36.8326 39.3705 36.7994 39.5844 36.8108 39.7983C36.797 39.9898 36.8447 40.1808 36.9477 40.3455C37.0527 40.5135 37.21 40.6457 37.3974 40.7236C37.596 40.8072 37.8181 40.8249 38.0284 40.774C38.2383 40.7232 38.4247 40.6069 38.5583 40.4435C38.7288 40.2421 38.8755 40.0225 38.9952 39.7899C39.3483 39.0966 39.6857 38.395 40.0216 37.6963C40.1516 37.4261 40.2779 37.1841 40.4216 36.9205C40.4315 36.953 40.4416 36.9847 40.452 37.0165C40.6026 37.6528 40.8568 38.2623 41.2052 38.8227C41.2711 38.9414 41.363 39.0451 41.4744 39.1268C41.5872 39.2095 41.7174 39.2675 41.8559 39.2969C41.9944 39.3264 42.138 39.3265 42.2766 39.2973C42.415 39.2682 42.5455 39.2101 42.6584 39.1279L42.8818 38.9674L44.6156 37.5657L44.5131 38.1928C44.3724 39.0548 44.2327 39.9097 44.0843 40.7647C43.9872 41.1437 43.9874 41.5395 44.0847 41.9184C44.1269 42.1316 44.2343 42.3279 44.3933 42.4822C44.5537 42.6379 44.759 42.7436 44.9827 42.7858C45.2064 42.8279 45.4382 42.8045 45.6479 42.7187C45.8545 42.6341 46.0303 42.4927 46.1532 42.3124C46.4391 41.972 46.617 41.5598 46.6659 41.125C46.7395 40.511 46.8226 39.8887 46.9058 39.2665C47.0016 38.5493 47.0974 37.8324 47.1783 37.1292L47.1786 37.127C47.2565 36.3572 47.2942 35.5843 47.2915 34.8109C47.3086 34.5666 47.2452 34.3231 47.1101 34.115C46.9746 33.9062 46.7738 33.7439 46.5365 33.651C46.2897 33.5433 46.0134 33.5145 45.7483 33.569C45.4849 33.623 45.2464 33.7563 45.0676 33.9493C44.7478 34.2332 44.4478 34.537 44.1695 34.8587L44.1676 34.8608C43.8638 35.2242 43.562 35.5947 43.2622 35.9628C43.0799 36.1865 42.8982 36.4098 42.7174 36.6296Z" fill="#263238"/>
</g>
<defs>
<clipPath id="clip0_1846_416">
<rect width="47" height="29" fill="white" transform="translate(7 15)"/>
</clipPath>
</defs>
</svg>
