<svg width="60" height="60" viewBox="0 0 60 60" fill="none" xmlns="http://www.w3.org/2000/svg">
<g clip-path="url(#clip0_1846_406)">
<path fill-rule="evenodd" clip-rule="evenodd" d="M20 10C25.5228 10 30 14.4771 30 20V10H40C45.5228 10 50 14.4771 50 20C50 25.5228 45.5228 30 40 30C45.5228 30 50 34.4772 50 40C50 42.7423 48.8961 45.2268 47.1085 47.0334L47.0711 47.0711L47.0379 47.1041C45.2309 48.8943 42.7446 50 40 50C37.2741 50 34.8029 48.9093 32.999 47.1405C32.9756 47.1175 32.9522 47.0943 32.9289 47.0711C32.907 47.0492 32.8852 47.0272 32.8635 47.0051C31.0924 45.2009 30 42.728 30 40C30 45.5228 25.5228 50 20 50C14.4771 50 10 45.5228 10 40V30H20C14.4771 30 10 25.5228 10 20C10 14.4771 14.4771 10 20 10ZM28 20C28 24.4183 24.4183 28 20 28V12C24.4183 12 28 15.5817 28 20ZM48 40C48 35.5817 44.4183 32 40 32C35.5817 32 32 35.5817 32 40H48ZM12 32V40C12 44.4183 15.5817 48 20 48C24.4183 48 28 44.4183 28 40V32H12ZM32 28V12H40C44.4183 12 48 15.5817 48 20C48 24.4183 44.4183 28 40 28H32Z" fill="#263238"/>
</g>
<defs>
<clipPath id="clip0_1846_406">
<rect width="40" height="40" fill="white" transform="translate(10 10)"/>
</clipPath>
</defs>
</svg>
