<svg width="48" height="48" viewBox="0 0 48 48" fill="none" xmlns="http://www.w3.org/2000/svg">
<path fill-rule="evenodd" clip-rule="evenodd" d="M24 24C27.746 24 31.14 25.24 33.63 26.974C35.996 28.624 38 31.076 38 33.714C38 35.162 37.382 36.362 36.408 37.254C35.492 38.096 34.296 38.642 33.064 39.014C30.602 39.76 27.36 40 24 40C20.64 40 17.398 39.76 14.936 39.014C13.704 38.642 12.508 38.096 11.59 37.254C10.62 36.364 10 35.164 10 33.716C10 31.078 12.004 28.626 14.37 26.976C16.86 25.24 20.254 24 24 24ZM24 28C21.12 28 18.514 28.96 16.66 30.254C14.682 31.634 14 33.038 14 33.714C14 34.322 14.704 34.702 15.344 34.942L15.754 35.082L16.094 35.186C17.974 35.754 20.734 36 24 36C27.016 36 29.598 35.79 31.456 35.312L32.064 35.138L32.444 35.018C33.13 34.784 34 34.39 34 33.714C34 33.038 33.318 31.634 31.34 30.254C29.488 28.962 26.88 28 24 28ZM38 26C40.088 26 41.984 26.69 43.386 27.666C44.666 28.56 46 30.046 46 31.858C46 34.528 43.406 35.484 41.074 35.818L40.474 35.892L39.896 35.942L39.62 35.958C39.864 35.268 40 34.518 40 33.714C39.9988 33.1156 39.927 32.5195 39.786 31.938C40.558 31.878 41.192 31.778 41.664 31.636C41.872 31.572 41.684 31.376 41.464 31.206L41.25 31.05L41.098 30.948C40.4977 30.5382 39.8208 30.2539 39.108 30.112C38.348 28.592 37.18 27.276 35.936 26.226C36.6138 26.0763 37.3059 26.0005 38 26ZM10 26C10.716 26.0027 11.404 26.078 12.064 26.226C10.82 27.276 9.652 28.592 8.892 30.112C8.17916 30.2539 7.50231 30.5382 6.902 30.948L6.646 31.124C6.392 31.308 6.094 31.564 6.336 31.636C6.808 31.778 7.442 31.88 8.216 31.938C8.07244 32.5191 7.99991 33.1154 8 33.714C8 34.518 8.136 35.268 8.38 35.958L7.82 35.918L7.228 35.858C4.824 35.564 2 34.644 2 31.858C2 30.048 3.332 28.56 4.614 27.666C6.19995 26.5796 8.07764 25.9988 10 26ZM37 14C38.3261 14 39.5979 14.5268 40.5355 15.4645C41.4732 16.4021 42 17.6739 42 19C42 20.3261 41.4732 21.5979 40.5355 22.5355C39.5979 23.4732 38.3261 24 37 24C35.6739 24 34.4021 23.4732 33.4645 22.5355C32.5268 21.5979 32 20.3261 32 19C32 17.6739 32.5268 16.4021 33.4645 15.4645C34.4021 14.5268 35.6739 14 37 14ZM11 14C12.3261 14 13.5979 14.5268 14.5355 15.4645C15.4732 16.4021 16 17.6739 16 19C16 20.3261 15.4732 21.5979 14.5355 22.5355C13.5979 23.4732 12.3261 24 11 24C9.67392 24 8.40215 23.4732 7.46447 22.5355C6.52678 21.5979 6 20.3261 6 19C6 17.6739 6.52678 16.4021 7.46447 15.4645C8.40215 14.5268 9.67392 14 11 14ZM24 6C26.1217 6 28.1566 6.84285 29.6569 8.34315C31.1571 9.84344 32 11.8783 32 14C32 16.1217 31.1571 18.1566 29.6569 19.6569C28.1566 21.1571 26.1217 22 24 22C21.8783 22 19.8434 21.1571 18.3431 19.6569C16.8429 18.1566 16 16.1217 16 14C16 11.8783 16.8429 9.84344 18.3431 8.34315C19.8434 6.84285 21.8783 6 24 6ZM37 18C36.7348 18 36.4804 18.1054 36.2929 18.2929C36.1054 18.4804 36 18.7348 36 19C36 19.2652 36.1054 19.5196 36.2929 19.7071C36.4804 19.8946 36.7348 20 37 20C37.2652 20 37.5196 19.8946 37.7071 19.7071C37.8946 19.5196 38 19.2652 38 19C38 18.7348 37.8946 18.4804 37.7071 18.2929C37.5196 18.1054 37.2652 18 37 18ZM11 18C10.7348 18 10.4804 18.1054 10.2929 18.2929C10.1054 18.4804 10 18.7348 10 19C10 19.2652 10.1054 19.5196 10.2929 19.7071C10.4804 19.8946 10.7348 20 11 20C11.2652 20 11.5196 19.8946 11.7071 19.7071C11.8946 19.5196 12 19.2652 12 19C12 18.7348 11.8946 18.4804 11.7071 18.2929C11.5196 18.1054 11.2652 18 11 18ZM24 10C22.9391 10 21.9217 10.4214 21.1716 11.1716C20.4214 11.9217 20 12.9391 20 14C20 15.0609 20.4214 16.0783 21.1716 16.8284C21.9217 17.5786 22.9391 18 24 18C25.0609 18 26.0783 17.5786 26.8284 16.8284C27.5786 16.0783 28 15.0609 28 14C28 12.9391 27.5786 11.9217 26.8284 11.1716C26.0783 10.4214 25.0609 10 24 10Z" fill="#4CAF4F"/>
</svg>
