<svg width="18" height="18" viewBox="0 0 18 18" fill="none" xmlns="http://www.w3.org/2000/svg">
<path fill-rule="evenodd" clip-rule="evenodd" d="M17.0667 8.5215C17.0667 9.09859 17.0079 9.67489 16.8925 10.2366C16.78 10.785 16.6133 11.3234 16.395 11.8381C16.1817 12.3437 15.9171 12.8309 15.6079 13.2853C15.3033 13.7368 14.9524 14.1603 14.567 14.5465C14.1807 14.9309 13.7557 15.2808 13.3044 15.5867C12.8486 15.8937 12.3607 16.1579 11.8548 16.3723C11.3393 16.5894 10.7997 16.7559 10.2518 16.8682C9.68927 16.9839 9.11088 17.043 8.53295 17.043C7.95459 17.043 7.37623 16.9839 6.81454 16.8682C6.26577 16.7559 5.72615 16.5894 5.21112 16.3723C4.70527 16.1579 4.21689 15.8937 3.76104 15.5867C3.30977 15.2808 2.88475 14.9309 2.49931 14.5465C2.11347 14.1603 1.7626 13.7368 1.45759 13.2853C1.15007 12.8309 0.885042 12.3437 0.670879 11.8381C0.452508 11.3234 0.285439 10.785 0.172513 10.2366C0.0583504 9.67489 0 9.09859 0 8.5215C0 7.94398 0.058317 7.36645 0.172546 6.80594C0.285473 6.25753 0.452541 5.71829 0.670912 5.20443C0.885075 4.69848 1.15011 4.21084 1.45762 3.75645C1.76264 3.3046 2.11351 2.88182 2.49935 2.49527C2.88479 2.11079 3.30981 1.76173 3.76108 1.45632C4.21693 1.14798 4.70531 0.883798 5.21115 0.669077C5.72619 0.451421 6.26577 0.284594 6.81457 0.173098C7.37626 0.0582662 7.95462 0 8.53298 0C9.11091 0 9.68927 0.0582662 10.2518 0.173098C10.7997 0.284627 11.3393 0.451454 11.8548 0.669077C12.3607 0.883765 12.8486 1.14798 13.3045 1.45632C13.7557 1.76173 14.1808 2.11079 14.567 2.49527C14.9525 2.88182 15.3033 3.3046 15.6079 3.75645C15.9171 4.21084 16.1817 4.69851 16.395 5.20443C16.6133 5.71829 16.78 6.25753 16.8925 6.80594C17.0079 7.36645 17.0667 7.94398 17.0667 8.5215ZM5.42358 1.93938C3.39138 2.89765 1.87463 4.76754 1.40168 7.02108C1.5938 7.02274 4.63063 7.06103 8.12955 6.13271C6.86825 3.89498 5.52068 2.06882 5.42358 1.93938ZM8.73332 7.25328C4.98106 8.37501 1.38044 8.2943 1.25128 8.28933C1.24918 8.36754 1.24543 8.44325 1.24543 8.52149C1.24543 10.3909 1.95172 12.0952 3.11261 13.3839C3.11011 13.3801 5.10441 9.84714 9.0371 8.57726C9.13209 8.54564 9.22878 8.51733 9.32461 8.48988C9.14171 8.07631 8.94207 7.66188 8.73332 7.25328ZM13.3457 3.05992C12.0627 1.93022 10.378 1.24496 8.53292 1.24496C7.9408 1.24496 7.36618 1.31654 6.81575 1.44884C6.9249 1.59533 8.29375 3.40862 9.54004 5.69374C12.2898 4.66436 13.3277 3.08653 13.3457 3.05992ZM9.82136 9.69569C9.80513 9.70107 9.78889 9.7057 9.77303 9.7115C5.47329 11.2083 4.06916 14.2248 4.05396 14.2577C5.29114 15.2184 6.84288 15.798 8.53297 15.798C9.54216 15.798 10.5035 15.5929 11.3781 15.2213C11.2702 14.5856 10.8468 12.357 9.82136 9.69569ZM12.6052 14.5564C14.2415 13.4538 15.4037 11.7029 15.7279 9.67485C15.5779 9.62659 13.539 8.98206 11.1868 9.35864C12.1427 11.9817 12.531 14.1179 12.6052 14.5564ZM10.101 6.77808C10.2701 7.12511 10.4339 7.47831 10.5851 7.83327C10.6389 7.96061 10.6914 8.08545 10.7427 8.21025C13.2461 7.89567 15.7125 8.42494 15.8179 8.44655C15.8013 6.72148 15.1833 5.13825 14.1608 3.89875C14.147 3.91827 12.9782 5.60468 10.101 6.77808Z" fill="white"/>
</svg>
