<svg width="115" height="18" viewBox="0 0 115 18" fill="none" xmlns="http://www.w3.org/2000/svg">
<path d="M13.9842 9.77663L9.9713 16.6494L5.95841 9.77663H13.9842ZM15.0593 9.16235H4.87903L9.9713 17.8651L15.0593 9.16235Z" fill="#263238"/>
<path d="M20.9611 1.22851L24.974 8.10132H16.9482L20.9611 1.22851ZM20.9611 0L15.8688 8.70269H26.0534L20.9611 0Z" fill="#263238"/>
<path d="M0 0L4.26971 7.69755L8.93546 0.193287L0 0Z" fill="#4CAF4F"/>
<path d="M9.97145 0.674316L14.4501 8.32892H5.48413L9.97145 0.674316Z" fill="#4CAF4F"/>
<path d="M15.6033 10L20.0863 17.8651H10.9071L15.464 10H15.6033Z" fill="#4CAF4F"/>
<path d="M16.574 9.52319L20.9612 17.268L25.4093 9.52319H16.574Z" fill="#4CAF4F"/>
<path d="M44.6873 1.24243V16.4008H41.9191L35.3243 6.8602H35.2133V16.4008H32.0084V1.24243H34.821L41.364 10.7756H41.4972V1.24243H44.6873Z" fill="#263238"/>
<path d="M52.457 16.6228C51.2876 16.6228 50.281 16.386 49.4372 15.9123C48.5983 15.4336 47.9519 14.7576 47.498 13.8843C47.044 13.0059 46.817 11.9673 46.817 10.7682C46.817 9.59876 47.044 8.57242 47.498 7.68917C47.9519 6.80592 48.5909 6.11757 49.415 5.62414C50.2439 5.1307 51.216 4.88399 52.3312 4.88399C53.0812 4.88399 53.7794 5.00488 54.4258 5.24666C55.0772 5.48351 55.6446 5.84125 56.1282 6.31988C56.6167 6.79852 56.9966 7.40051 57.268 8.12586C57.5394 8.84627 57.6751 9.69005 57.6751 10.6572V11.5232H48.0753V9.56916H54.7071C54.7071 9.1152 54.6084 8.71305 54.411 8.36271C54.2136 8.01237 53.9398 7.73851 53.5894 7.54114C53.244 7.33883 52.8419 7.23767 52.383 7.23767C51.9044 7.23767 51.48 7.3487 51.1099 7.57074C50.7448 7.78785 50.4586 8.08145 50.2514 8.45152C50.0441 8.81667 49.938 9.22375 49.9331 9.67278V11.5306C49.9331 12.0931 50.0367 12.5791 50.2439 12.9887C50.4561 13.3982 50.7547 13.714 51.1395 13.9361C51.5244 14.1581 51.9808 14.2691 52.5088 14.2691C52.8592 14.2691 53.1799 14.2198 53.471 14.1211C53.7621 14.0224 54.0113 13.8744 54.2186 13.677C54.4258 13.4796 54.5837 13.2379 54.6923 12.9517L57.6085 13.1441C57.4604 13.8448 57.157 14.4566 56.6981 14.9797C56.2441 15.4978 55.6569 15.9024 54.9365 16.1935C54.221 16.4797 53.3945 16.6228 52.457 16.6228Z" fill="#263238"/>
<path d="M62.1641 5.03202L64.2514 9.00664L66.3904 5.03202H69.6249L66.3312 10.7164L69.7137 16.4008H66.494L64.2514 12.4706L62.0457 16.4008H58.789L62.1641 10.7164L58.9074 5.03202H62.1641Z" fill="#263238"/>
<path d="M76.227 16.6228C75.0625 16.6228 74.0608 16.3761 73.222 15.8827C72.3881 15.3843 71.7466 14.6935 71.2976 13.8102C70.8535 12.927 70.6315 11.9105 70.6315 10.7608C70.6315 9.5963 70.856 8.57488 71.305 7.69657C71.759 6.81332 72.4029 6.12498 73.2368 5.63154C74.0707 5.13317 75.0625 4.88399 76.2122 4.88399C77.204 4.88399 78.0725 5.06409 78.8176 5.4243C79.5627 5.78451 80.1523 6.29028 80.5865 6.94161C81.0208 7.59295 81.2601 8.35777 81.3045 9.23609H78.3291C78.2452 8.66864 78.0231 8.21221 77.6629 7.8668C77.3077 7.51646 76.8414 7.34129 76.264 7.34129C75.7755 7.34129 75.3487 7.47452 74.9836 7.74098C74.6234 8.0025 74.3421 8.38491 74.1398 8.88822C73.9375 9.39152 73.8363 10.0009 73.8363 10.7164C73.8363 11.4417 73.935 12.0585 74.1324 12.5668C74.3347 13.075 74.6184 13.4624 74.9836 13.7288C75.3487 13.9953 75.7755 14.1285 76.264 14.1285C76.6242 14.1285 76.9474 14.0545 77.2336 13.9065C77.5248 13.7584 77.7641 13.5438 77.9516 13.2625C78.144 12.9763 78.2699 12.6334 78.3291 12.2337H81.3045C81.2551 13.1022 81.0183 13.867 80.5939 14.5282C80.1745 15.1845 79.5947 15.6976 78.8546 16.0677C78.1144 16.4378 77.2386 16.6228 76.227 16.6228Z" fill="#263238"/>
<path d="M88.5043 16.6228C87.3349 16.6228 86.3283 16.386 85.4845 15.9123C84.6457 15.4336 83.9993 14.7576 83.5453 13.8843C83.0913 13.0059 82.8643 11.9673 82.8643 10.7682C82.8643 9.59876 83.0913 8.57242 83.5453 7.68917C83.9993 6.80592 84.6383 6.11757 85.4623 5.62414C86.2913 5.1307 87.2633 4.88399 88.3785 4.88399C89.1285 4.88399 89.8267 5.00488 90.4731 5.24666C91.1245 5.48351 91.6919 5.84125 92.1755 6.31988C92.664 6.79852 93.0439 7.40051 93.3153 8.12586C93.5867 8.84627 93.7224 9.69005 93.7224 10.6572V11.5232H84.1226V9.56916H90.7544C90.7544 9.1152 90.6557 8.71305 90.4583 8.36271C90.261 8.01237 89.9871 7.73851 89.6368 7.54114C89.2914 7.33883 88.8892 7.23767 88.4303 7.23767C87.9517 7.23767 87.5273 7.3487 87.1572 7.57074C86.7921 7.78785 86.5059 8.08145 86.2987 8.45152C86.0914 8.81667 85.9853 9.22375 85.9804 9.67278V11.5306C85.9804 12.0931 86.084 12.5791 86.2913 12.9887C86.5034 13.3982 86.802 13.714 87.1869 13.9361C87.5717 14.1581 88.0282 14.2691 88.5561 14.2691C88.9065 14.2691 89.2272 14.2198 89.5183 14.1211C89.8095 14.0224 90.0586 13.8744 90.2659 13.677C90.4731 13.4796 90.631 13.2379 90.7396 12.9517L93.6558 13.1441C93.5078 13.8448 93.2043 14.4566 92.7454 14.9797C92.2914 15.4978 91.7043 15.9024 90.9838 16.1935C90.2684 16.4797 89.4418 16.6228 88.5043 16.6228Z" fill="#263238"/>
<path d="M98.9331 9.82821V16.4008H95.78V5.03202H98.785V7.03783H98.9183C99.1699 6.37663 99.5918 5.85359 100.184 5.46871C100.776 5.07889 101.494 4.88399 102.338 4.88399C103.127 4.88399 103.816 5.05669 104.403 5.40209C104.99 5.7475 105.446 6.24093 105.772 6.8824C106.098 7.51893 106.261 8.27882 106.261 9.16207V16.4008H103.108V9.72459C103.112 9.02884 102.935 8.48607 102.575 8.09625C102.214 7.7015 101.719 7.50413 101.087 7.50413C100.663 7.50413 100.288 7.59541 99.9619 7.77799C99.6412 7.96056 99.3895 8.22701 99.2069 8.57735C99.0293 8.92276 98.938 9.33971 98.9331 9.82821Z" fill="#263238"/>
<path d="M114.793 5.03202V7.40051H107.946V5.03202H114.793ZM109.501 2.30825H112.654V12.9072C112.654 13.1984 112.698 13.4254 112.787 13.5882C112.876 13.7461 112.999 13.8571 113.157 13.9213C113.32 13.9854 113.507 14.0175 113.719 14.0175C113.868 14.0175 114.016 14.0051 114.164 13.9805C114.312 13.9509 114.425 13.9287 114.504 13.9139L115 16.2601C114.842 16.3095 114.62 16.3662 114.334 16.4304C114.048 16.4995 113.7 16.5414 113.29 16.5562C112.53 16.5858 111.864 16.4847 111.292 16.2527C110.724 16.0208 110.283 15.6606 109.967 15.1721C109.651 14.6836 109.496 14.0668 109.501 13.3217V2.30825Z" fill="#263238"/>
</svg>
