<svg width="191" height="30" viewBox="0 0 191 30" fill="none" xmlns="http://www.w3.org/2000/svg">
<path d="M23.2259 16.2378L16.561 27.6526L9.89611 16.2378H23.2259ZM25.0114 15.2176H8.10339L16.561 29.6717L25.0114 15.2176Z" fill="white"/>
<path d="M34.8137 2.0404L41.4786 13.4552H28.1488L34.8137 2.0404ZM34.8137 0L26.3561 14.454H43.2713L34.8137 0Z" fill="white"/>
<path d="M0 0L7.09143 12.7846L14.8406 0.321025L0 0Z" fill="#4CAF4F"/>
<path d="M16.5612 1.12L23.9997 13.8333H9.1084L16.5612 1.12Z" fill="#4CAF4F"/>
<path d="M25.9152 16.6088L33.3608 29.6717H18.1154L25.6838 16.6088H25.9152Z" fill="#4CAF4F"/>
<path d="M27.5271 15.8169L34.8137 28.68L42.2014 15.8169H27.5271Z" fill="#4CAF4F"/>
<path d="M74.2197 2.06342V27.2394H69.6222L58.6691 11.3938H58.4847V27.2394H53.1619V2.06342H57.8332L68.7002 17.8968H68.9215V2.06342H74.2197Z" fill="white"/>
<path d="M87.1243 27.6082C85.182 27.6082 83.5102 27.2149 82.1088 26.4281C80.7156 25.6332 79.642 24.5104 78.888 23.0598C78.134 21.6011 77.757 19.8759 77.757 17.8845C77.757 15.9422 78.134 14.2376 78.888 12.7706C79.642 11.3036 80.7033 10.1604 82.0719 9.34086C83.4487 8.52133 85.0632 8.11156 86.9153 8.11156C88.161 8.11156 89.3206 8.31235 90.3942 8.71392C91.476 9.10729 92.4185 9.70145 93.2216 10.4964C94.033 11.2913 94.664 12.2912 95.1147 13.4959C95.5655 14.6924 95.7908 16.0938 95.7908 17.7001V19.1384H79.8469V15.893H90.8614C90.8614 15.1391 90.6975 14.4711 90.3696 13.8893C90.0418 13.3074 89.587 12.8526 89.0051 12.5247C88.4315 12.1887 87.7635 12.0207 87.0014 12.0207C86.2064 12.0207 85.5016 12.2051 84.887 12.5739C84.2805 12.9345 83.8052 13.4221 83.461 14.0368C83.1168 14.6432 82.9406 15.3193 82.9324 16.0651V19.1507C82.9324 20.0849 83.1045 20.8922 83.4487 21.5724C83.8011 22.2526 84.2969 22.7771 84.9361 23.1459C85.5754 23.5147 86.3335 23.6991 87.2104 23.6991C87.7922 23.6991 88.3249 23.6171 88.8084 23.4532C89.292 23.2893 89.7058 23.0434 90.05 22.7156C90.3942 22.3878 90.6565 21.9862 90.8368 21.5109L95.6802 21.8305C95.4344 22.9943 94.9303 24.0105 94.1682 24.8792C93.4142 25.7397 92.439 26.4117 91.2424 26.8952C90.0541 27.3706 88.6814 27.6082 87.1243 27.6082Z" fill="white"/>
<path d="M103.247 8.35742L106.713 14.9588L110.266 8.35742H115.638L110.167 17.7984L115.785 27.2394H110.438L106.713 20.7119L103.05 27.2394H97.6409L103.247 17.7984L97.8376 8.35742H103.247Z" fill="white"/>
<path d="M126.603 27.6082C124.669 27.6082 123.005 27.1985 121.612 26.3789C120.227 25.5512 119.162 24.4039 118.416 22.9369C117.679 21.4699 117.31 19.7817 117.31 17.8722C117.31 15.9381 117.683 14.2417 118.428 12.7829C119.182 11.3159 120.252 10.1727 121.637 9.35315C123.022 8.52543 124.669 8.11156 126.579 8.11156C128.226 8.11156 129.668 8.41069 130.906 9.00895C132.143 9.60721 133.123 10.4472 133.844 11.529C134.565 12.6108 134.962 13.8811 135.036 15.3398H130.094C129.955 14.3974 129.586 13.6393 128.988 13.0656C128.398 12.4838 127.624 12.1928 126.665 12.1928C125.853 12.1928 125.144 12.4141 124.538 12.8567C123.94 13.291 123.473 13.9261 123.137 14.7621C122.801 15.598 122.633 16.6101 122.633 17.7984C122.633 19.0031 122.796 20.0276 123.124 20.8717C123.46 21.7158 123.932 22.3591 124.538 22.8017C125.144 23.2442 125.853 23.4655 126.665 23.4655C127.263 23.4655 127.8 23.3426 128.275 23.0967C128.759 22.8508 129.156 22.4944 129.467 22.0272C129.787 21.5519 129.996 20.9823 130.094 20.3185H135.036C134.954 21.7609 134.561 23.0311 133.856 24.1293C133.159 25.2193 132.197 26.0716 130.967 26.6863C129.738 27.3009 128.283 27.6082 126.603 27.6082Z" fill="white"/>
<path d="M146.994 27.6082C145.052 27.6082 143.38 27.2149 141.979 26.4281C140.585 25.6332 139.512 24.5104 138.758 23.0598C138.004 21.6011 137.627 19.8759 137.627 17.8845C137.627 15.9422 138.004 14.2376 138.758 12.7706C139.512 11.3036 140.573 10.1604 141.942 9.34086C143.319 8.52133 144.933 8.11156 146.785 8.11156C148.031 8.11156 149.191 8.31235 150.264 8.71392C151.346 9.10729 152.288 9.70145 153.092 10.4964C153.903 11.2913 154.534 12.2912 154.985 13.4959C155.435 14.6924 155.661 16.0938 155.661 17.7001V19.1384H139.717V15.893H150.731C150.731 15.1391 150.567 14.4711 150.24 13.8893C149.912 13.3074 149.457 12.8526 148.875 12.5247C148.301 12.1887 147.633 12.0207 146.871 12.0207C146.076 12.0207 145.372 12.2051 144.757 12.5739C144.15 12.9345 143.675 13.4221 143.331 14.0368C142.987 14.6432 142.81 15.3193 142.802 16.0651V19.1507C142.802 20.0849 142.974 20.8922 143.319 21.5724C143.671 22.2526 144.167 22.7771 144.806 23.1459C145.445 23.5147 146.203 23.6991 147.08 23.6991C147.662 23.6991 148.195 23.6171 148.678 23.4532C149.162 23.2893 149.576 23.0434 149.92 22.7156C150.264 22.3878 150.526 21.9862 150.707 21.5109L155.55 21.8305C155.304 22.9943 154.8 24.0105 154.038 24.8792C153.284 25.7397 152.309 26.4117 151.112 26.8952C149.924 27.3706 148.551 27.6082 146.994 27.6082Z" fill="white"/>
<path d="M164.315 16.3233V27.2394H159.078V8.35742H164.069V11.6888H164.29C164.708 10.5906 165.409 9.72194 166.393 9.08271C167.376 8.43528 168.568 8.11156 169.97 8.11156C171.281 8.11156 172.424 8.3984 173.4 8.97207C174.375 9.54574 175.133 10.3653 175.674 11.4307C176.215 12.4879 176.485 13.7499 176.485 15.2169V27.2394H171.248V16.1512C171.256 14.9956 170.961 14.0941 170.363 13.4467C169.765 12.7911 168.941 12.4633 167.892 12.4633C167.187 12.4633 166.565 12.6149 166.024 12.9181C165.491 13.2213 165.073 13.6639 164.77 14.2458C164.475 14.8194 164.323 15.5119 164.315 16.3233Z" fill="white"/>
<path d="M190.656 8.35742V12.2912H179.285V8.35742H190.656ZM181.866 3.83361H187.103V21.4372C187.103 21.9207 187.177 22.2977 187.324 22.5681C187.472 22.8304 187.677 23.0148 187.939 23.1213C188.209 23.2278 188.521 23.2811 188.873 23.2811C189.119 23.2811 189.365 23.2606 189.611 23.2196C189.857 23.1705 190.045 23.1336 190.176 23.109L191 27.0059C190.738 27.0878 190.369 27.1821 189.894 27.2886C189.418 27.4033 188.841 27.473 188.16 27.4976C186.898 27.5468 185.792 27.3788 184.841 26.9936C183.899 26.6084 183.165 26.0101 182.641 25.1988C182.116 24.3875 181.858 23.3631 181.866 22.1256V3.83361Z" fill="white"/>
</svg>
