<svg width="48" height="48" viewBox="0 0 48 48" fill="none" xmlns="http://www.w3.org/2000/svg">
<path d="M23.8352 13C21.081 13 18.8387 15.2814 18.8387 18.0703C18.8387 19.8345 19.7373 21.3923 21.0941 22.3003C19.4553 22.8528 18.0373 23.8853 16.9973 25.2362C16.4223 24.7902 15.7798 24.4316 15.0872 24.1746C16.1375 23.3884 16.8238 22.1255 16.8238 20.7061C16.8238 18.3408 14.9265 16.4045 12.5949 16.4045C10.2632 16.4045 8.36587 18.3408 8.36587 20.7061C8.36587 22.1263 9.05281 23.3898 10.104 24.176C7.32095 25.2115 5.33331 27.9225 5.33331 31.113V33.3542C5.3336 33.525 5.40138 33.6887 5.52156 33.809C5.64175 33.9296 5.80437 33.9968 5.97382 33.9962H15.7261C15.7497 33.9988 15.7733 34.0003 15.797 34H31.874C31.8977 34.0003 31.9216 33.9988 31.945 33.9962H41.6979C42.0485 33.9948 42.3325 33.7079 42.3333 33.3542V31.113C42.3333 27.9225 40.3491 25.2115 37.5675 24.1757C38.6187 23.3898 39.3056 22.126 39.3056 20.7058C39.3056 18.3405 37.4083 16.4042 35.0767 16.4042C32.745 16.4042 30.8477 18.3405 30.8477 20.7058C30.8477 22.1252 31.5343 23.3883 32.5846 24.1743C31.8906 24.4319 31.2478 24.7917 30.672 25.2387C29.6324 23.8871 28.2164 22.8531 26.5777 22.3003C27.9342 21.3923 28.8331 19.8345 28.8331 18.0703C28.8331 15.2814 26.5897 13 23.8354 13H23.8352ZM23.8352 14.2864C25.8952 14.2864 27.5558 15.972 27.5558 18.0703C27.5558 20.1521 25.9211 21.8213 23.8839 21.848C23.8677 21.848 23.8518 21.8457 23.8352 21.8457C23.8187 21.8457 23.8031 21.848 23.7865 21.848C21.7494 21.8216 20.1157 20.1522 20.1157 18.0703C20.1157 15.9717 21.775 14.2864 23.8349 14.2864H23.8352ZM12.5949 17.6909C14.2294 17.6909 15.548 19.0284 15.548 20.706C15.548 22.3723 14.2465 23.7041 12.6274 23.7222C12.6166 23.7222 12.606 23.7211 12.5949 23.7211C12.5841 23.7211 12.5735 23.7222 12.5624 23.7222C10.9434 23.7041 9.6418 22.372 9.6418 20.706C9.6418 19.0285 10.9604 17.6909 12.5949 17.6909H12.5949ZM35.0763 17.6909C36.7107 17.6909 38.0294 19.0284 38.0294 20.706C38.0294 22.3723 36.7278 23.7041 35.1087 23.7222C35.0979 23.7222 35.0874 23.7211 35.0763 23.7211C35.0654 23.7211 35.0549 23.7222 35.0438 23.7222C33.4247 23.7041 32.1231 22.372 32.1231 20.706C32.1231 19.0285 33.4418 17.6909 35.0762 17.6909H35.0763ZM23.7864 23.1344C23.8026 23.1347 23.8186 23.1367 23.8351 23.1367C23.8513 23.1367 23.8673 23.1344 23.8838 23.1344C27.9692 23.1608 31.2388 26.4858 31.2388 30.6479L31.2385 32.7131H16.4323V30.6479C16.4323 26.4854 19.7009 23.1609 23.7858 23.1344H23.7864ZM12.5461 25.0101C12.5623 25.0104 12.5783 25.0124 12.5948 25.0124C12.6113 25.0124 12.627 25.0101 12.6435 25.0101C14.0253 25.0213 15.2864 25.5017 16.2906 26.3054C15.572 27.5873 15.1565 29.0669 15.1565 30.6483V32.7086H6.6087V31.1129C6.6087 27.7302 9.24653 25.0365 12.5459 25.0098L12.5461 25.0101ZM35.0274 25.0101C35.0439 25.0104 35.0596 25.0124 35.0761 25.0124C35.0926 25.0124 35.1083 25.0101 35.1248 25.0101C38.4242 25.0365 41.0621 27.7306 41.0621 31.1132V32.7086H32.5099L32.5096 30.6483C32.5096 29.0678 32.0952 27.5893 31.3781 26.3077C32.3825 25.5028 33.6445 25.0213 35.0275 25.0101H35.0274Z" fill="#103E13"/>
</svg>
