<svg width="48" height="48" viewBox="0 0 48 48" fill="none" xmlns="http://www.w3.org/2000/svg">
<path d="M24.0759 28.7415C25.8474 27.2648 27.1178 25.2841 27.7149 23.0678C28.3119 20.8515 28.2068 18.507 27.4136 16.3519C26.6205 14.1969 25.1777 12.3356 23.2809 11.0205C21.3842 9.70538 19.1251 9 16.8101 9C14.4951 9 12.236 9.70538 10.3393 11.0205C8.4425 12.3356 6.99974 14.1969 6.20659 16.3519C5.41343 18.507 5.30826 20.8515 5.90532 23.0678C6.50239 25.2841 7.77281 27.2648 9.54435 28.7415C6.67127 30.0298 4.19894 32.0572 2.3844 34.6128C2.06235 35.0672 1.93534 35.6297 2.03121 36.1767C2.12709 36.7238 2.43803 37.2108 2.89583 37.531C3.25074 37.7824 3.67641 37.9169 4.11266 37.9155C4.45199 37.9164 4.78649 37.8359 5.08749 37.6806C5.3885 37.5254 5.64703 37.3002 5.84093 37.0243C7.07737 35.2793 8.71965 33.855 10.6289 32.8717C12.5382 31.8884 14.6583 31.3751 16.8101 31.3751C18.9619 31.3751 21.082 31.8884 22.9913 32.8717C24.9006 33.855 26.5428 35.2793 27.7793 37.0243C27.9326 37.2643 28.1335 37.471 28.3698 37.6318C28.6062 37.7926 28.8731 37.9041 29.1542 37.9596C29.4354 38.0151 29.725 38.0134 30.0055 37.9546C30.286 37.8958 30.5515 37.7812 30.7859 37.6177C31.0203 37.4541 31.2188 37.2451 31.3692 37.0032C31.5196 36.7614 31.6189 36.4918 31.6609 36.2108C31.703 35.9298 31.687 35.6433 31.6139 35.3686C31.5409 35.0939 31.4122 34.8368 31.2358 34.6128C29.4213 32.0572 26.9489 30.0298 24.0759 28.7415ZM9.75597 20.1966C9.75597 18.8142 10.1697 17.4628 10.9448 16.3134C11.7199 15.1639 12.8216 14.268 14.1106 13.739C15.3996 13.21 16.8179 13.0715 18.1863 13.3412C19.5547 13.6109 20.8116 14.2766 21.7981 15.2542C22.7847 16.2317 23.4565 17.4771 23.7287 18.833C24.0009 20.1889 23.8612 21.5943 23.3273 22.8715C22.7934 24.1487 21.8892 25.2403 20.7292 26.0083C19.5691 26.7764 18.2053 27.1863 16.8101 27.1863C14.9392 27.1863 13.145 26.4499 11.8221 25.1391C10.4992 23.8283 9.75597 22.0504 9.75597 20.1966ZM45.0972 37.531C44.7423 37.7824 44.3166 37.9169 43.8803 37.9155C43.5415 37.9135 43.2081 37.8317 42.9076 37.6767C42.607 37.5218 42.3481 37.2981 42.1521 37.0243C40.913 35.2824 39.27 33.8606 37.3612 32.8784C35.4525 31.8963 33.3337 31.3825 31.1829 31.3801C30.6216 31.3801 30.0834 31.1592 29.6865 30.7659C29.2896 30.3727 29.0667 29.8393 29.0667 29.2832C29.0667 28.7271 29.2896 28.1937 29.6865 27.8005C30.0834 27.4072 30.6216 27.1863 31.1829 27.1863C33.0538 27.1863 34.848 26.4499 36.1709 25.1391C37.4938 23.8283 38.237 22.0504 38.237 20.1966C38.237 18.3428 37.4938 16.565 36.1709 15.2542C34.848 13.9433 33.0538 13.2069 31.1829 13.2069C30.5388 13.2057 29.8977 13.294 29.2783 13.469C29.0093 13.5485 28.7271 13.5742 28.448 13.5446C28.1689 13.515 27.8985 13.4306 27.6527 13.2965C27.4068 13.1624 27.1903 12.9811 27.0158 12.7632C26.8413 12.5454 26.7123 12.2953 26.6362 12.0276C26.5602 11.7599 26.5387 11.4799 26.5729 11.2038C26.6072 10.9278 26.6965 10.6612 26.8357 10.4197C26.9749 10.1782 27.1612 9.96655 27.3837 9.79707C27.6063 9.62758 27.8606 9.50365 28.132 9.4325C29.1243 9.15258 30.1512 9.01142 31.1829 9.01312C33.4995 9.00646 35.7618 9.70737 37.6619 11.0204C39.5621 12.3335 41.0076 14.1949 41.8017 16.3513C42.5959 18.5076 42.7001 20.854 42.1001 23.0711C41.5001 25.2882 40.2251 27.2682 38.4487 28.7415C41.3217 30.0298 43.7941 32.0572 45.6086 34.6128C45.7704 34.837 45.8855 35.0909 45.9474 35.3595C46.0093 35.6282 46.0166 35.9064 45.9691 36.178C45.9215 36.4495 45.8199 36.7089 45.6702 36.9412C45.5205 37.1735 45.3257 37.374 45.0972 37.531Z" fill="#4CAF4F"/>
</svg>
