<svg width="18" height="18" viewBox="0 0 18 18" fill="none" xmlns="http://www.w3.org/2000/svg">
<path fill-rule="evenodd" clip-rule="evenodd" d="M8.75 1.5C4.74594 1.5 1.5 4.74594 1.5 8.75C1.5 11.4286 2.95258 13.7679 5.11298 15.0231L8.05364 7.67146C8.20748 7.28687 8.64396 7.09981 9.02854 7.25364C9.41313 7.40748 9.60019 7.84396 9.44636 8.22854L7.97495 11.9071C8.53278 12.0442 9.12059 12.0318 9.67769 11.866C10.4191 11.6453 11.0576 11.1674 11.4782 10.5182C11.8989 9.86897 12.0741 9.09098 11.9725 8.3241C11.8709 7.55722 11.4991 6.85173 10.9239 6.33444C10.3487 5.81716 9.60783 5.52202 8.8345 5.50207C8.06117 5.48211 7.30608 5.73866 6.70497 6.22559C6.10386 6.71252 5.69615 7.3979 5.55513 8.15852C5.41411 8.91915 5.54902 9.70513 5.93563 10.3752C6.14263 10.734 6.01959 11.1926 5.66082 11.3996C5.30204 11.6066 4.84338 11.4836 4.63637 11.1248C4.07134 10.1455 3.87415 8.99676 4.08026 7.88508C4.28637 6.7734 4.88226 5.77169 5.7608 5.06002C6.63935 4.34836 7.74294 3.9734 8.87319 4.00257C10.0034 4.03173 11.0862 4.46309 11.9269 5.21912C12.7676 5.97514 13.311 7.00625 13.4595 8.12708C13.608 9.24791 13.3519 10.385 12.7371 11.3338C12.1223 12.2827 11.1892 12.9812 10.1056 13.3037C9.2235 13.5662 8.28878 13.5656 7.41414 13.3091L6.48244 15.6383C7.19581 15.873 7.95808 16 8.75 16C12.7541 16 16 12.7541 16 8.75C16 4.74594 12.7541 1.5 8.75 1.5ZM0 8.75C0 3.91751 3.91751 0 8.75 0C13.5825 0 17.5 3.91751 17.5 8.75C17.5 13.5825 13.5825 17.5 8.75 17.5C3.91751 17.5 0 13.5825 0 8.75Z" fill="white"/>
</svg>
