<svg width="18" height="19" viewBox="0 0 18 19" fill="none" xmlns="http://www.w3.org/2000/svg">
<path d="M5.865 2.00009C6.61567 2.00009 7.30533 2.20309 7.934 2.60909C8.25867 2.52909 8.64433 2.48876 9.091 2.48809C10.937 2.48809 12.5093 3.15742 13.808 4.49609C15.1067 5.83476 15.756 7.45809 15.756 9.36609C15.756 9.83209 15.7053 10.3191 15.604 10.8271C15.868 11.4164 16 12.0144 16 12.6211C16 13.7184 15.6193 14.6568 14.858 15.4361C14.098 16.2174 13.1897 16.6084 12.133 16.6091C11.4927 16.6071 10.8639 16.4389 10.308 16.1211C9.78133 16.2024 9.37567 16.2431 9.091 16.2431C7.24433 16.2431 5.66667 15.5734 4.358 14.2341C2.395 12.2251 2.395 11.2721 2.395 9.36609C2.395 8.91942 2.44567 8.46276 2.547 7.99609C2.18068 7.37964 1.99141 6.67412 2 5.95709C2 4.86109 2.37533 3.92809 3.126 3.15809C3.87667 2.38609 4.78967 2.00009 5.865 2.00009ZM9 12.5301C8.59533 12.5301 8.27033 12.4691 8.025 12.3471C7.76233 12.2051 7.58 12.0634 7.478 11.9221C7.23467 11.4748 7.10267 11.2414 7.082 11.2221C7.01111 10.9929 6.88629 10.7841 6.718 10.6131C6.54147 10.4809 6.32842 10.4065 6.108 10.4001C5.97882 10.3957 5.85011 10.4178 5.72975 10.4649C5.60938 10.512 5.4999 10.5832 5.408 10.6741C5.32085 10.756 5.25154 10.8551 5.20439 10.965C5.15725 11.075 5.13329 11.1935 5.134 11.3131C5.13467 11.6984 5.27733 12.1144 5.562 12.5611C5.82533 12.9671 6.19067 13.3014 6.658 13.5641C7.306 13.9101 8.10733 14.0831 9.062 14.0831C9.852 14.0831 10.552 13.9614 11.162 13.7181C11.7707 13.4341 12.217 13.0791 12.501 12.6531C12.805 12.1858 12.957 11.6784 12.957 11.1311C12.957 10.6858 12.8763 10.2801 12.715 9.91409C12.5523 9.60942 12.2983 9.33609 11.953 9.09409C11.5883 8.87075 11.2008 8.68704 10.797 8.54609C10.3147 8.39737 9.8274 8.26529 9.336 8.15009C9.15681 8.12249 8.97896 8.08679 8.803 8.04309L8.393 7.93709C8.2141 7.88272 8.04068 7.81175 7.875 7.72509C7.71695 7.64802 7.58078 7.53248 7.479 7.38909C7.42776 7.33711 7.38781 7.2751 7.36166 7.20696C7.3355 7.13882 7.3237 7.06601 7.327 6.99309C7.327 6.75042 7.469 6.53742 7.753 6.35409C8.017 6.15076 8.40233 6.04909 8.909 6.04909C9.417 6.04909 9.79267 6.14009 10.036 6.32209C10.2993 6.54676 10.4917 6.80076 10.613 7.08409C10.7763 7.34809 10.9083 7.53042 11.009 7.63109C11.1757 7.7553 11.3792 7.82008 11.587 7.81509C11.7183 7.81517 11.8483 7.78802 11.9686 7.73535C12.0889 7.68269 12.197 7.60564 12.286 7.50909C12.3756 7.42266 12.4463 7.31859 12.4937 7.20343C12.541 7.08828 12.5639 6.96456 12.561 6.84009C12.561 6.63742 12.4897 6.37376 12.347 6.04909C12.1643 5.78108 11.9498 5.53628 11.708 5.32009C11.424 5.09609 11.0483 4.90309 10.581 4.74109C10.0765 4.5964 9.55385 4.52467 9.029 4.52809C8.299 4.52742 7.64967 4.63909 7.081 4.86309C6.51433 5.06376 6.07867 5.36742 5.774 5.77409C5.47031 6.177 5.30951 6.6696 5.317 7.17409C5.317 7.70076 5.459 8.15742 5.743 8.54409C6.08833 8.94876 6.47367 9.23242 6.899 9.39509C7.38633 9.61909 7.975 9.80176 8.665 9.94309C8.787 9.96376 8.934 9.99909 9.106 10.0491L9.563 10.1721L9.882 10.2471C10.166 10.3491 10.399 10.4914 10.581 10.6741C10.7637 10.8148 10.855 11.0278 10.855 11.3131C10.855 11.6584 10.693 11.9428 10.369 12.1661C10.005 12.4088 9.54867 12.5301 9 12.5301ZM5.865 9.01105e-05C4.256 9.01105e-05 2.812 0.61009 1.691 1.76509C0.586 2.89909 0 4.35009 0 5.95709C0 6.78909 0.156 7.57609 0.466 8.30509C0.419119 8.65714 0.395734 9.01193 0.396 9.36709C0.396 11.8051 1.249 13.9141 2.928 15.6341C4.621 17.3661 6.696 18.2441 9.092 18.2441C9.346 18.2441 9.639 18.2241 9.988 18.1841C10.678 18.4671 11.397 18.6101 12.134 18.6101C13.722 18.6101 15.159 17.9961 16.291 16.8331C16.8401 16.279 17.2739 15.6215 17.5672 14.8987C17.8606 14.1759 18.0077 13.4021 18 12.6221C18 11.9451 17.889 11.2731 17.668 10.6181C17.7267 10.2037 17.7565 9.78565 17.757 9.36709C17.757 6.93009 16.911 4.82309 15.244 3.10409C13.559 1.36909 11.489 0.48909 9.092 0.48909C8.82453 0.488359 8.5572 0.501041 8.291 0.52709C7.53088 0.175315 6.70256 -0.00461923 5.865 9.01105e-05Z" fill="white"/>
</svg>
