<svg width="412" height="378" viewBox="0 0 412 378" fill="none" xmlns="http://www.w3.org/2000/svg">
<path d="M205.732 377.994C314.253 377.994 402.227 372.852 402.227 366.509C402.227 360.166 314.253 355.024 205.732 355.024C97.2109 355.024 9.23712 360.166 9.23712 366.509C9.23712 372.852 97.2109 377.994 205.732 377.994Z" fill="#F5F5F5"/>
<path d="M306.315 110.012L296.262 105.953C296.262 105.953 282.996 130.171 279.196 131.399C274.027 133.063 263.325 137.69 256.981 138.501C256.12 139.516 254.711 142.671 254.843 143.818C263.366 146.669 282.094 142.884 286.108 139.901C295.239 133.134 306.315 110.012 306.315 110.012Z" fill="#E58A7B"/>
<path d="M309.406 104.502C311.281 111.432 301.127 125.372 301.127 125.372L287.82 117.905C287.82 117.905 290.313 112.173 293.354 106.339C298.228 96.9133 307.268 96.5987 309.406 104.502Z" fill="#4CAF4F"/>
<path opacity="0.2" d="M309.406 104.502C311.281 111.432 301.127 125.372 301.127 125.372L287.82 117.905C287.82 117.905 290.313 112.173 293.354 106.339C298.228 96.9133 307.268 96.5987 309.406 104.502Z" fill="black"/>
<path opacity="0.2" d="M293.1 120.888L298.34 123.83L299.262 107.729C296.211 110.072 294.063 117.134 293.1 120.888Z" fill="black"/>
<path d="M300.65 99.2874C300.65 99.2874 290.293 122.359 296.333 165.317H337.144C337.793 159.047 335.644 128.447 343.417 98.9019C338.94 98.0259 334.411 97.4464 329.857 97.1669C324.082 96.8319 318.293 96.8319 312.518 97.1669C308.514 97.5739 304.547 98.2827 300.65 99.2874Z" fill="#4CAF4F"/>
<path opacity="0.2" d="M300.65 99.2874C300.65 99.2874 290.293 122.359 296.333 165.317H337.144C337.793 159.047 335.644 128.447 343.417 98.9019C338.94 98.0259 334.411 97.4464 329.857 97.1669C324.082 96.8319 318.293 96.8319 312.518 97.1669C308.514 97.5739 304.547 98.2827 300.65 99.2874Z" fill="black"/>
<path d="M291.185 367.422C291.124 368.518 306.599 369.401 325.743 369.401C344.887 369.401 360.473 368.518 360.534 367.422C360.595 366.326 345.13 365.454 325.976 365.454C306.822 365.454 291.256 366.337 291.185 367.422Z" fill="#E8ECF1"/>
<path d="M318.427 338.631L311.188 341.436L317.423 357.562L324.662 354.757L318.427 338.631Z" fill="#E58A7B"/>
<path d="M350.704 359.62H343.073L340.276 341.936H347.907L350.704 359.62Z" fill="#E58A7B"/>
<path d="M342.546 358.737H351.119C351.268 358.738 351.412 358.791 351.525 358.888C351.638 358.984 351.714 359.118 351.738 359.265L352.842 366.053C352.865 366.223 352.852 366.396 352.802 366.561C352.753 366.725 352.668 366.877 352.555 367.006C352.441 367.135 352.302 367.238 352.145 367.308C351.988 367.378 351.818 367.414 351.646 367.412C348.657 367.361 347.218 367.179 343.448 367.179C341.127 367.179 336.354 367.422 333.131 367.422C329.908 367.422 329.695 364.257 331.023 363.963C336.982 362.674 339.293 360.919 341.279 359.214C341.629 358.906 342.079 358.737 342.546 358.737Z" fill="#263238"/>
<path d="M317.21 356.12L325.317 353.746C325.462 353.705 325.616 353.715 325.754 353.774C325.893 353.833 326.007 353.937 326.077 354.07L329.118 360.158C329.188 360.312 329.224 360.48 329.223 360.65C329.222 360.82 329.184 360.988 329.112 361.141C329.04 361.295 328.935 361.431 328.804 361.54C328.674 361.648 328.522 361.727 328.358 361.771C325.408 362.583 323.432 363.08 319.743 364.155C317.2 364.896 314.605 366.103 312.092 366.905C310.349 367.463 306.255 367.483 304.136 367.483C301.005 367.483 300.306 364.176 301.654 364.023C305.049 363.648 305.505 363.82 307.379 362.877C310.447 361.534 313.227 359.612 315.568 357.215C316.009 356.712 316.576 356.334 317.21 356.12Z" fill="#263238"/>
<path d="M258.258 138.461L249.867 134.94L246.411 144.254C249.851 144.778 253.349 144.778 256.789 144.254L258.258 138.461Z" fill="#E58A7B"/>
<path d="M243.624 134.696L243.401 140.885L246.411 144.234L249.867 134.92L243.624 134.696Z" fill="#E58A7B"/>
<path d="M319.42 340L312.159 342.807L315.374 351.145L322.635 348.339L319.42 340Z" fill="#CF6F64"/>
<path d="M347.907 341.936H340.276L341.725 351.057H349.356L347.907 341.936Z" fill="#CF6F64"/>
<path opacity="0.2" d="M295.036 153.7C295.188 155.536 295.36 157.413 295.583 159.341L325.925 149.479C330.664 148.073 334.782 145.092 337.6 141.027C337.722 138.319 337.874 135.468 338.107 132.495C338.208 131.054 338.33 129.573 338.462 128.071C338.593 126.57 338.776 124.906 338.968 123.303L295.036 153.7Z" fill="black"/>
<path d="M304.947 120.421L303.934 120.3C304.532 115.227 308.312 111.229 312.295 111.331V112.345C308.808 112.274 305.484 115.876 304.947 120.421Z" fill="white"/>
<path d="M310.349 129.786H310.177V128.771C313.663 128.903 316.936 125.261 317.473 120.726L318.487 120.847C317.95 125.809 314.291 129.786 310.349 129.786Z" fill="white"/>
<path d="M329.29 77.6158C327.861 83.2062 326.179 93.4434 329.857 97.1669C329.857 97.1669 327.283 102.838 316.916 102.838C307.44 102.838 312.518 97.1669 312.518 97.1669C318.821 95.6856 318.933 91.0794 318.102 86.7167L329.29 77.6158Z" fill="#E58A7B"/>
<path d="M324.729 81.3292L318.112 86.7167C318.317 87.7192 318.436 88.7375 318.466 89.7604C320.402 91.6881 324.284 86.808 324.679 84.3121C324.88 83.3295 324.897 82.3181 324.729 81.3292Z" fill="#CF6F64"/>
<path d="M306.731 77.5448C307.191 78.3439 307.812 79.0392 308.553 79.5874C309.294 80.1355 310.14 80.5247 311.038 80.7307C313.47 81.2684 314.686 79.0261 314.017 76.7738C313.42 74.7446 311.423 72.0154 308.95 72.4821C308.421 72.5913 307.925 72.826 307.504 73.1665C307.084 73.507 306.751 73.9435 306.534 74.4392C306.316 74.935 306.221 75.4757 306.255 76.016C306.289 76.5564 306.453 77.0806 306.731 77.5448Z" fill="#CF6F64"/>
<path d="M310.754 59.6577C306.964 61.3926 305.626 76.4694 310.389 78.7015C315.153 80.9336 317.929 56.3603 310.754 59.6577Z" fill="#263238"/>
<path d="M330.445 69.2049C329.533 76.7737 329.432 81.2278 325.378 85.1035C324.122 86.3896 322.535 87.3032 320.793 87.7434C319.051 88.1836 317.221 88.1332 315.506 87.5979C313.791 87.0626 312.256 86.0631 311.073 84.7098C309.889 83.3565 309.102 81.702 308.798 79.9291C307.572 73.1314 309.264 61.8999 316.845 58.8866C318.438 58.1833 320.189 57.9192 321.918 58.1219C323.647 58.3245 325.291 58.9864 326.678 60.039C328.065 61.0916 329.146 62.4966 329.809 64.1083C330.471 65.7199 330.691 67.4796 330.445 69.2049Z" fill="#E58A7B"/>
<path d="M317.99 63.574C323.605 62.1434 327.729 61.1694 326.25 65.8467C324.294 72.0965 321.943 78.1434 325.094 78.4174C327.02 78.5898 335.533 74.9779 334.448 71.3153C333.506 68.1295 337.489 67.2569 338.198 65.6437C340.823 59.7997 333.313 60.5708 334.651 57.0197C335.989 53.4687 328.57 47.7464 324.517 50.5974C317.919 55.2036 306.599 55.1326 312.548 47.5537C316.815 42.1459 309.204 43.2518 309.204 43.2518C309.204 43.2518 313.805 45.9811 306.062 50.2017C297.873 54.7065 305.383 66.8105 317.99 63.574Z" fill="#263238"/>
<path d="M333.425 77.5448C332.316 79.1505 330.651 80.286 328.753 80.7307C326.25 81.2684 325.287 79.0261 326.229 76.7738C327.071 74.7446 329.381 72.0154 331.773 72.4821C334.165 72.9488 334.712 75.5563 333.425 77.5448Z" fill="#E58A7B"/>
<path d="M296.333 165.317C296.333 165.317 289.482 226.699 288.945 249.994C288.398 274.222 312.163 349.819 312.163 349.819L324.324 344.746C324.324 344.746 310.136 275.673 312.163 251.881C314.311 225.938 323.189 165.357 323.189 165.357L296.333 165.317Z" fill="#4CAF4F"/>
<path opacity="0.2" d="M313.359 182.169C307.896 193.512 311.575 215.944 314.534 229.236C315.659 219.851 316.997 209.664 318.264 200.239C318.142 185.75 317.017 174.56 313.359 182.169Z" fill="black"/>
<path d="M323.787 340.728C323.848 340.728 325.226 344.604 325.226 344.604L311.2 350.509L308.991 346.39L323.787 340.728Z" fill="#4CAF4F"/>
<path d="M310.815 165.317C310.815 165.317 316.055 223.696 319.52 245.56C323.331 269.515 338.269 349.292 338.269 349.292H352.244C352.244 349.292 343.873 271.453 342.292 247.731C340.57 222.002 337.144 165.317 337.144 165.317H310.815Z" fill="#4CAF4F"/>
<path d="M352.457 345.649C352.518 345.649 352.923 349.555 352.923 349.555H337.56L336.465 345.071L352.457 345.649Z" fill="#4CAF4F"/>
<path opacity="0.2" d="M347.106 341.023C347.074 341.023 347.044 341.012 347.019 340.992C346.995 340.971 346.979 340.942 346.974 340.911C346.893 340.201 339.343 269.89 337.924 248.584C336.384 225.472 333.283 174.204 333.252 173.687C333.251 173.67 333.253 173.653 333.259 173.637C333.264 173.621 333.273 173.607 333.284 173.594C333.296 173.582 333.31 173.572 333.325 173.565C333.341 173.559 333.357 173.555 333.374 173.555C333.407 173.555 333.439 173.568 333.464 173.59C333.488 173.613 333.503 173.644 333.506 173.677C333.506 174.194 336.637 225.421 338.178 248.574C339.597 269.88 347.147 340.14 347.218 340.901C347.22 340.918 347.22 340.935 347.216 340.951C347.211 340.968 347.204 340.983 347.193 340.997C347.183 341.01 347.17 341.021 347.155 341.029C347.14 341.037 347.123 341.042 347.106 341.043V341.023Z" fill="black"/>
<path d="M318.852 71.3153C318.852 71.9342 318.466 72.4313 318.061 72.4313C317.656 72.4313 317.362 71.9342 317.402 71.3153C317.443 70.6964 317.787 70.1992 318.193 70.1992C318.598 70.1992 318.892 70.7065 318.852 71.3153Z" fill="#263238"/>
<path d="M311.899 71.3153C311.899 71.9342 311.504 72.4313 311.109 72.4313C310.714 72.4313 310.41 71.9342 310.44 71.3153C310.47 70.6964 310.835 70.1992 311.241 70.1992C311.646 70.1992 311.94 70.7065 311.899 71.3153Z" fill="#263238"/>
<path d="M314.088 71.6298C313.243 73.5196 312.152 75.29 310.845 76.8955C311.859 77.91 313.754 77.4433 313.754 77.4433L314.088 71.6298Z" fill="#DF5753"/>
<path d="M314.271 80.0306C314.247 80.0306 314.224 80.0259 314.203 80.0166C314.181 80.0073 314.161 79.9936 314.145 79.9765C314.129 79.9594 314.117 79.9392 314.109 79.9171C314.101 79.895 314.097 79.8715 314.099 79.848C314.101 79.7986 314.123 79.7522 314.158 79.7182C314.194 79.6842 314.242 79.6653 314.291 79.6653C315.066 79.6707 315.833 79.5022 316.534 79.1721C317.236 78.842 317.854 78.3588 318.345 77.7579C318.38 77.7272 318.425 77.7103 318.472 77.7103C318.518 77.7103 318.563 77.7272 318.598 77.7579C318.631 77.792 318.649 77.8374 318.649 77.8847C318.649 77.9321 318.631 77.9775 318.598 78.0116C318.073 78.6502 317.412 79.163 316.663 79.5124C315.914 79.8617 315.097 80.0388 314.271 80.0306Z" fill="#263238"/>
<path d="M320.088 69.4484C320.039 69.4734 319.986 69.4864 319.931 69.4864C319.876 69.4864 319.822 69.4734 319.774 69.4484C319.395 69.2031 318.963 69.0504 318.514 69.0029C318.065 68.9553 317.612 69.0141 317.19 69.1745C317.148 69.1951 317.104 69.2072 317.058 69.2102C317.012 69.2132 316.966 69.2069 316.922 69.1918C316.879 69.1766 316.839 69.153 316.805 69.1221C316.77 69.0913 316.743 69.0539 316.723 69.0122C316.686 68.9219 316.685 68.8205 316.721 68.7295C316.757 68.6385 316.827 68.5652 316.916 68.5252C317.446 68.3085 318.02 68.2231 318.59 68.2761C319.16 68.3291 319.708 68.5189 320.189 68.8295C320.228 68.856 320.261 68.8899 320.287 68.9293C320.313 68.9687 320.33 69.0128 320.339 69.059C320.347 69.1053 320.346 69.1528 320.336 69.1987C320.326 69.2447 320.307 69.2882 320.281 69.3267C320.229 69.3849 320.162 69.4271 320.088 69.4484Z" fill="#263238"/>
<path d="M309.214 67.4192C309.16 67.4062 309.111 67.378 309.072 67.3381C309.038 67.305 309.011 67.2656 308.993 67.222C308.975 67.1784 308.965 67.1317 308.965 67.0844C308.965 67.0372 308.975 66.9904 308.993 66.9469C309.011 66.9033 309.038 66.8639 309.072 66.8308C309.46 66.3946 309.944 66.0542 310.486 65.836C311.027 65.6177 311.611 65.5276 312.193 65.5727C312.24 65.5799 312.285 65.5966 312.324 65.6218C312.364 65.647 312.399 65.6801 312.425 65.7191C312.452 65.7581 312.47 65.8021 312.479 65.8485C312.488 65.8949 312.487 65.9426 312.477 65.9887C312.455 66.0826 312.4 66.1654 312.322 66.2214C312.243 66.2775 312.147 66.303 312.051 66.2931C311.591 66.264 311.13 66.3403 310.703 66.5161C310.277 66.6918 309.895 66.9625 309.589 67.3076C309.543 67.359 309.483 67.3966 309.417 67.4163C309.351 67.436 309.28 67.437 309.214 67.4192Z" fill="#263238"/>
<path d="M347.339 108.885L336.8 106.075C336.8 106.075 326.462 131.551 322.804 133.205C317.838 135.478 305.261 143.351 299.911 147.074C299.617 148.343 299.85 151.701 300.519 152.624C309.639 150.96 327.101 144.234 330.749 140.814C339.07 133.012 347.339 108.885 347.339 108.885Z" fill="#E58A7B"/>
<path d="M339.982 360.077C339.467 360.117 338.955 359.977 338.533 359.681C338.402 359.563 338.304 359.413 338.249 359.246C338.194 359.079 338.184 358.9 338.218 358.727C338.225 358.619 338.26 358.515 338.321 358.426C338.381 358.337 338.465 358.266 338.563 358.22C339.414 357.784 341.796 359.295 342.069 359.468C342.099 359.486 342.123 359.514 342.135 359.547C342.148 359.58 342.15 359.616 342.14 359.651C342.132 359.686 342.114 359.718 342.089 359.745C342.064 359.772 342.033 359.792 341.998 359.803C341.338 359.965 340.662 360.057 339.982 360.077ZM338.968 358.494C338.892 358.477 338.812 358.477 338.735 358.494C338.696 358.514 338.664 358.544 338.643 358.582C338.621 358.62 338.611 358.663 338.614 358.707C338.587 358.825 338.591 358.948 338.627 359.064C338.662 359.18 338.728 359.284 338.816 359.366C339.212 359.722 340.205 359.762 341.512 359.508C340.734 358.995 339.857 358.65 338.938 358.494H338.968Z" fill="#4CAF4F"/>
<path d="M341.948 359.803C341.921 359.811 341.893 359.811 341.867 359.803C341.107 359.377 339.678 357.703 339.891 356.85C339.922 356.715 339.999 356.595 340.107 356.508C340.215 356.422 340.35 356.374 340.488 356.373C340.624 356.355 340.763 356.367 340.894 356.407C341.025 356.447 341.146 356.515 341.249 356.607C342.09 357.327 342.14 359.539 342.14 359.651C342.145 359.684 342.139 359.718 342.122 359.747C342.106 359.777 342.08 359.8 342.049 359.813C342.015 359.82 341.98 359.816 341.948 359.803ZM340.59 356.708H340.519C340.286 356.708 340.255 356.84 340.245 356.891C340.124 357.388 341.026 358.656 341.775 359.255C341.772 358.398 341.507 357.562 341.015 356.86C340.898 356.758 340.746 356.703 340.59 356.708Z" fill="#4CAF4F"/>
<path d="M313.075 358.808C312.455 359.025 311.78 359.025 311.16 358.808C311.019 358.732 310.899 358.621 310.813 358.487C310.726 358.352 310.674 358.197 310.663 358.037C310.65 357.937 310.663 357.835 310.7 357.741C310.737 357.647 310.798 357.564 310.876 357.5C311.687 356.769 315.001 357.5 315.375 357.642C315.411 357.651 315.443 357.672 315.465 357.701C315.487 357.731 315.498 357.767 315.497 357.804C315.499 357.842 315.489 357.88 315.469 357.912C315.449 357.945 315.42 357.971 315.386 357.987C314.639 358.324 313.867 358.599 313.075 358.808ZM311.423 357.601C311.307 357.624 311.199 357.677 311.109 357.753C311.077 357.777 311.052 357.81 311.038 357.848C311.023 357.886 311.02 357.927 311.028 357.966C311.034 358.073 311.068 358.176 311.124 358.266C311.181 358.357 311.259 358.431 311.352 358.484C311.889 358.768 313.136 358.545 314.747 357.865C313.662 357.591 312.538 357.502 311.423 357.601Z" fill="#4CAF4F"/>
<path d="M315.355 357.987H315.274C314.261 357.804 312.234 356.637 312.173 355.765C312.173 355.562 312.264 355.278 312.751 355.115C312.915 355.057 313.089 355.032 313.264 355.042C313.438 355.053 313.608 355.098 313.764 355.176C314.859 355.714 315.436 357.662 315.467 357.753C315.474 357.784 315.473 357.816 315.464 357.846C315.455 357.876 315.439 357.904 315.416 357.926C315.401 357.951 315.38 357.971 315.355 357.987ZM312.953 355.42H312.852C312.538 355.531 312.538 355.663 312.538 355.704C312.538 356.231 314.007 357.195 315.031 357.52C314.795 356.705 314.296 355.991 313.612 355.491C313.409 355.387 313.174 355.362 312.953 355.42Z" fill="#4CAF4F"/>
<path d="M300.772 146.476L290.202 151.346L288.976 154.39L292.877 157.017C292.877 157.017 300.174 156.226 302.251 151.528L300.772 146.476Z" fill="#E58A7B"/>
<path d="M301.218 152.797C300.982 150.763 300.311 148.805 299.252 147.054L300.924 145.796C302.182 147.813 302.984 150.081 303.275 152.442L301.218 152.797Z" fill="#263238"/>
<path d="M303.022 147.917C303.245 148.268 303.355 148.681 303.336 149.097C303.317 149.514 303.171 149.914 302.916 150.245C302.662 150.575 302.312 150.818 301.915 150.943C301.517 151.067 301.091 151.065 300.694 150.938C300.297 150.811 299.949 150.565 299.697 150.233C299.445 149.901 299.302 149.499 299.286 149.083C299.27 148.666 299.383 148.255 299.609 147.904C299.835 147.554 300.163 147.282 300.549 147.125C300.982 146.904 301.485 146.863 301.948 147.012C302.411 147.16 302.797 147.485 303.022 147.917Z" fill="#263238"/>
<path d="M283.057 155.282L284.466 156.703L293.951 152.644L290.202 151.346L283.057 155.282Z" fill="#E58A7B"/>
<path opacity="0.2" d="M323.787 340.728C323.848 340.728 325.226 344.604 325.226 344.604L311.2 350.509L308.991 346.39L323.787 340.728Z" fill="black"/>
<path opacity="0.2" d="M352.457 345.649C352.518 345.649 352.923 349.555 352.923 349.555H337.56L336.465 345.071L352.457 345.649Z" fill="black"/>
<path d="M350.086 105.963C352.873 114.963 341.978 127.27 341.978 127.27L326.929 121.121C328.712 115.92 330.769 110.816 333.09 105.831C337.712 95.8581 347.268 96.8828 350.086 105.963Z" fill="#4CAF4F"/>
<path opacity="0.2" d="M350.086 105.963C352.873 114.963 341.978 127.27 341.978 127.27L326.929 121.121C328.712 115.92 330.769 110.816 333.09 105.831C337.712 95.8581 347.268 96.8828 350.086 105.963Z" fill="black"/>
<path d="M200.543 15.7971H194.067V16.8421H200.543V15.7971Z" fill="#4CAF4F"/>
<path d="M284.373 57.1583L283.589 74.5712L284.632 74.6182L285.415 57.2053L284.373 57.1583Z" fill="#4CAF4F"/>
<path d="M282.358 20.4845H162.772L151.645 269.789H271.23L282.358 20.4845Z" fill="#4CAF4F"/>
<path opacity="0.56" d="M278.791 23.9138H159.205L148.078 273.218H267.663L278.791 23.9138Z" fill="#FAFAFA"/>
<path opacity="0.07" d="M275.223 27.3329H155.638L144.5 276.637H264.086L275.223 27.3329Z" fill="#4CAF4F"/>
<path d="M261.613 136.066H159.54L158.688 155.14H260.761L261.613 136.066Z" fill="white"/>
<path d="M215.674 122.146H160.158L159.783 130.679H215.299L215.674 122.146Z" fill="#4CAF4F"/>
<path d="M259.312 187.546H157.239L156.388 206.62H258.461L259.312 187.546Z" fill="white"/>
<path opacity="0.47" d="M240.594 232.381H171.954L170.931 255.239H239.571L240.594 232.381Z" fill="#4CAF4F"/>
<path d="M236.003 258.791H167.363C167.333 258.798 167.302 258.798 167.272 258.791C167.262 258.761 167.262 258.729 167.272 258.699L168.286 235.83C168.285 235.815 168.289 235.799 168.295 235.785C168.301 235.771 168.31 235.758 168.322 235.748C168.333 235.737 168.347 235.729 168.361 235.724C168.376 235.719 168.392 235.717 168.407 235.719H237.047C237.06 235.713 237.074 235.709 237.088 235.709C237.102 235.709 237.116 235.713 237.128 235.719C237.135 235.731 237.139 235.745 237.139 235.759C237.139 235.774 237.135 235.788 237.128 235.8L236.135 258.719C236.123 258.743 236.104 258.763 236.08 258.776C236.057 258.788 236.03 258.793 236.003 258.791ZM167.485 258.547H235.882L236.895 235.922H168.498L167.485 258.547Z" fill="white"/>
<path d="M203.685 173.626H157.857L157.482 182.169H203.3L203.685 173.626Z" fill="#4CAF4F"/>
<path d="M239.287 74.4503C239.025 80.0015 237.053 85.3354 233.642 89.7198C231.117 93.0316 227.868 95.7202 224.143 97.5792C220.419 99.4382 216.319 100.418 212.157 100.444C208.794 100.47 205.462 99.8058 202.365 98.4933C199.268 97.1807 196.472 95.2473 194.15 92.8121C191.828 90.3769 190.028 87.4915 188.862 84.3336C187.695 81.1758 187.187 77.8123 187.369 74.4503C187.725 67.4741 190.73 60.8976 195.769 56.0659C200.808 51.2342 207.501 48.5122 214.478 48.4566C217.843 48.4252 221.179 49.085 224.28 50.3953C227.381 51.7056 230.18 53.6385 232.505 56.0746C234.83 58.5108 236.632 61.3983 237.798 64.5589C238.965 67.7195 239.471 71.086 239.287 74.4503Z" fill="white"/>
<path d="M241.729 53.8948C241.663 55.3709 241.139 56.7895 240.229 57.9532C239.556 58.8328 238.692 59.5469 237.701 60.041C236.71 60.5351 235.62 60.7961 234.514 60.8042C233.441 60.8107 232.384 60.5542 231.433 60.0573C230.483 59.5603 229.669 58.8379 229.061 57.9532C228.257 56.7576 227.859 55.3346 227.926 53.8948C228.024 52.0426 228.824 50.2975 230.163 49.0155C231.502 47.7335 233.279 47.0111 235.132 46.9956C236.026 46.9875 236.912 47.1626 237.735 47.5103C238.559 47.8579 239.302 48.3707 239.921 49.0171C240.539 49.6635 241.018 50.4297 241.329 51.2686C241.64 52.1075 241.776 53.0012 241.729 53.8948Z" fill="#4CAF4F"/>
<path d="M170.535 145.603C170.487 146.421 170.13 147.19 169.538 147.754C168.945 148.319 168.161 148.638 167.343 148.647C166.948 148.652 166.556 148.575 166.192 148.422C165.828 148.27 165.499 148.043 165.225 147.758C164.952 147.473 164.739 147.134 164.602 146.764C164.464 146.393 164.404 145.998 164.424 145.603C164.468 144.784 164.823 144.013 165.417 143.447C166.01 142.881 166.797 142.564 167.617 142.56C168.011 142.556 168.402 142.634 168.766 142.787C169.13 142.941 169.458 143.167 169.731 143.452C170.005 143.737 170.217 144.074 170.355 144.444C170.493 144.814 170.555 145.209 170.535 145.603Z" fill="#263238"/>
<path d="M184.197 145.603C184.15 146.422 183.794 147.192 183.202 147.757C182.609 148.322 181.823 148.641 181.004 148.647C180.61 148.65 180.219 148.573 179.856 148.419C179.493 148.266 179.165 148.04 178.893 147.754C178.62 147.469 178.409 147.131 178.272 146.761C178.135 146.391 178.075 145.997 178.096 145.603C178.139 144.786 178.493 144.016 179.084 143.45C179.676 142.885 180.46 142.566 181.278 142.56C181.673 142.555 182.065 142.631 182.429 142.784C182.793 142.937 183.122 143.163 183.396 143.448C183.669 143.734 183.882 144.072 184.019 144.443C184.157 144.813 184.217 145.208 184.197 145.603Z" fill="#263238"/>
<path d="M197.868 145.603C197.821 146.422 197.466 147.192 196.873 147.757C196.28 148.322 195.494 148.641 194.675 148.647C194.281 148.65 193.89 148.573 193.526 148.419C193.163 148.266 192.834 148.04 192.561 147.755C192.288 147.47 192.075 147.132 191.937 146.762C191.799 146.392 191.737 145.998 191.757 145.603C191.803 144.785 192.159 144.015 192.752 143.449C193.345 142.884 194.13 142.566 194.949 142.56C195.344 142.555 195.736 142.631 196.1 142.784C196.464 142.937 196.793 143.163 197.067 143.448C197.341 143.734 197.553 144.072 197.69 144.443C197.828 144.813 197.889 145.208 197.868 145.603Z" fill="#263238"/>
<path d="M168.235 197.083C168.186 197.901 167.83 198.67 167.237 199.235C166.645 199.799 165.861 200.118 165.043 200.127C164.648 200.13 164.257 200.053 163.893 199.9C163.53 199.746 163.201 199.52 162.928 199.235C162.655 198.95 162.442 198.612 162.304 198.242C162.166 197.872 162.105 197.478 162.124 197.083C162.17 196.265 162.526 195.495 163.119 194.93C163.712 194.364 164.497 194.046 165.316 194.04C165.711 194.036 166.102 194.114 166.465 194.267C166.829 194.421 167.158 194.647 167.431 194.932C167.704 195.217 167.916 195.555 168.055 195.925C168.193 196.295 168.254 196.689 168.235 197.083Z" fill="#263238"/>
<path d="M181.896 197.083C181.85 197.9 181.495 198.669 180.905 199.234C180.314 199.799 179.531 200.118 178.714 200.127C178.319 200.132 177.927 200.055 177.563 199.903C177.198 199.75 176.869 199.524 176.596 199.238C176.322 198.953 176.11 198.615 175.972 198.244C175.835 197.873 175.774 197.478 175.795 197.083C175.841 196.265 176.197 195.495 176.79 194.93C177.383 194.364 178.169 194.046 178.987 194.04C179.382 194.036 179.772 194.114 180.135 194.267C180.498 194.421 180.826 194.647 181.099 194.932C181.371 195.217 181.582 195.555 181.72 195.925C181.857 196.295 181.917 196.689 181.896 197.083Z" fill="#263238"/>
<path d="M195.598 197.083C195.551 197.902 195.196 198.672 194.603 199.237C194.01 199.803 193.224 200.121 192.405 200.127C192.011 200.129 191.621 200.05 191.258 199.897C190.895 199.743 190.567 199.517 190.294 199.232C190.021 198.947 189.809 198.61 189.67 198.241C189.531 197.871 189.469 197.478 189.487 197.083C189.535 196.266 189.892 195.497 190.484 194.932C191.077 194.367 191.861 194.048 192.679 194.04C193.074 194.035 193.466 194.111 193.83 194.264C194.194 194.417 194.523 194.643 194.797 194.928C195.07 195.214 195.283 195.552 195.42 195.923C195.558 196.293 195.618 196.688 195.598 197.083Z" fill="#263238"/>
<path d="M209.238 197.083C209.19 197.901 208.833 198.67 208.241 199.235C207.648 199.799 206.864 200.118 206.046 200.127C205.652 200.129 205.262 200.051 204.899 199.897C204.536 199.743 204.208 199.517 203.935 199.232C203.662 198.947 203.45 198.61 203.311 198.241C203.172 197.871 203.11 197.478 203.127 197.083C203.176 196.266 203.533 195.497 204.125 194.932C204.717 194.367 205.502 194.048 206.32 194.04C206.714 194.036 207.105 194.114 207.469 194.267C207.833 194.421 208.161 194.647 208.434 194.932C208.708 195.217 208.92 195.555 209.058 195.925C209.196 196.295 209.258 196.689 209.238 197.083Z" fill="#263238"/>
<path d="M222.96 197.083C222.912 197.901 222.555 198.67 221.963 199.235C221.37 199.799 220.586 200.118 219.768 200.127C219.373 200.132 218.981 200.055 218.617 199.903C218.253 199.75 217.924 199.524 217.65 199.238C217.376 198.953 217.164 198.615 217.027 198.244C216.889 197.873 216.829 197.478 216.849 197.083C216.896 196.265 217.251 195.495 217.844 194.93C218.437 194.364 219.223 194.046 220.042 194.04C220.436 194.036 220.827 194.114 221.191 194.267C221.555 194.421 221.883 194.647 222.156 194.932C222.43 195.217 222.642 195.555 222.78 195.925C222.918 196.295 222.98 196.689 222.96 197.083Z" fill="#263238"/>
<path d="M220.886 73.0965C225.128 68.9438 225.353 62.2874 221.389 58.2291C217.425 54.1708 210.773 54.2474 206.531 58.4001C202.289 62.5529 202.064 69.2093 206.028 73.2676C209.992 77.3259 216.645 77.2493 220.886 73.0965Z" fill="#4CAF4F"/>
<path d="M233.642 89.7198C231.117 93.0316 227.868 95.7201 224.143 97.5792C220.419 99.4382 216.319 100.418 212.157 100.444C208.122 100.478 204.14 99.518 200.563 97.6477C196.986 95.7775 193.923 93.0549 191.645 89.7198C196.571 84.8092 204.364 81.6031 212.998 81.6031C221.633 81.6031 229.152 84.8092 233.642 89.7198Z" fill="#4CAF4F"/>
<path opacity="0.1" d="M220.886 73.0965C225.128 68.9438 225.353 62.2874 221.389 58.2291C217.425 54.1708 210.773 54.2474 206.531 58.4001C202.289 62.5529 202.064 69.2093 206.028 73.2676C209.992 77.3259 216.645 77.2493 220.886 73.0965Z" fill="white"/>
<path opacity="0.1" d="M233.642 89.7198C231.117 93.0316 227.868 95.7201 224.143 97.5792C220.419 99.4382 216.319 100.418 212.157 100.444C208.122 100.478 204.14 99.518 200.563 97.6477C196.986 95.7775 193.923 93.0549 191.645 89.7198C196.571 84.8092 204.364 81.6031 212.998 81.6031C221.633 81.6031 229.152 84.8092 233.642 89.7198Z" fill="white"/>
<path d="M84.5353 159.736C83.5726 161.847 82.5591 164.17 81.6775 166.423C80.7958 168.675 79.8938 170.998 79.1135 173.312C77.5202 177.87 76.3067 182.554 75.4854 187.313L75.2624 188.804C75.2411 189.06 75.2652 189.318 75.3334 189.565C75.5725 190.406 75.9492 191.202 76.4481 191.919C77.7496 193.777 79.2593 195.479 80.9478 196.992C82.728 198.65 84.5953 200.211 86.5419 201.669C88.4877 203.171 90.5349 204.632 92.5516 206.012L90.6565 209.573C85.8409 207.472 81.27 204.849 77.0258 201.75C74.7615 200.097 72.718 198.161 70.9452 195.988C69.8943 194.694 69.0749 193.228 68.5231 191.655C68.2022 190.673 68.0381 189.645 68.0366 188.612C68.0366 188.368 68.0366 188.013 68.0366 187.84V187.343L68.138 186.329C68.719 181.043 69.8292 175.829 71.4519 170.765C72.2424 168.269 73.0835 165.783 74.0463 163.358C75.0091 160.934 76.0022 158.559 77.2285 156.094L84.5353 159.736Z" fill="#E58A7B"/>
<path d="M91.1227 205.383L98.2876 201.75L96.433 209.624C96.433 209.624 91.5179 211.003 89.2377 208.609L91.1227 205.383Z" fill="#E58A7B"/>
<path d="M104.845 203.039L102.939 209.553L96.433 209.624L98.2876 201.75L104.845 203.039Z" fill="#E58A7B"/>
<path d="M114.959 121.75C115.342 123.156 115.875 124.517 116.55 125.809C116.353 126.032 116.099 126.199 115.815 126.29C115.532 126.381 115.229 126.393 114.938 126.326L114.959 121.75Z" fill="#DF5753"/>
<path d="M114.746 121.811C115.166 121.811 115.506 121.289 115.506 120.644C115.506 120 115.166 119.478 114.746 119.478C114.326 119.478 113.986 120 113.986 120.644C113.986 121.289 114.326 121.811 114.746 121.811Z" fill="#263238"/>
<path d="M114.523 119.518L116.063 119.082C116.063 119.082 115.313 120.279 114.523 119.518Z" fill="#263238"/>
<path d="M95.1662 129.197C96.0885 133.915 97.0107 142.57 93.7069 145.725C93.7069 145.725 95.0041 150.514 103.77 150.514C113.408 150.514 108.371 145.725 108.371 145.725C103.112 144.467 103.243 140.561 104.166 136.888L95.1662 129.197Z" fill="#E58A7B"/>
<path d="M92.6023 118.443C93.0887 126.326 93.1293 129.674 97.1019 133.722C103.091 139.81 112.658 137.497 114.533 129.664C116.225 122.562 115.151 110.874 107.439 107.739C105.746 107.041 103.903 106.786 102.085 107C100.266 107.214 98.5326 107.888 97.0472 108.96C95.5618 110.032 94.374 111.465 93.5962 113.124C92.8184 114.784 92.4763 116.614 92.6023 118.443Z" fill="#E58A7B"/>
<path d="M93.3826 109.575C89.4302 111.016 84.1604 109.941 86.2278 122.146C88.4168 135.072 85.0522 139.323 85.0522 139.323C85.0522 139.323 100.041 142.519 115.344 139.13C115.344 139.13 110.672 130.953 111.979 124.926C113.651 117.317 112.334 114.506 112.334 114.506C112.334 114.506 98.9362 107.546 93.3826 109.575Z" fill="#263238"/>
<path d="M110.104 122.552C110.108 124.051 110.537 125.518 111.341 126.783C112.415 128.426 113.682 127.797 113.996 126.052C114.28 124.52 114.067 121.811 112.699 120.756C111.331 119.701 110.125 120.736 110.104 122.552Z" fill="#E58A7B"/>
<path d="M89.9471 110.904C88.812 107.708 94.2238 102.788 105.676 104.817C117.127 106.846 117.624 116.393 117.624 116.393L115.313 113.634L115.415 116.535L103.649 118.798L89.9471 110.904Z" fill="#263238"/>
<path d="M90.92 146.263C90.8524 145.799 90.9681 145.328 91.2426 144.949C91.5171 144.57 91.9286 144.313 92.3894 144.234C95.9567 143.645 104.064 142.448 108.138 143.016C111.179 143.442 111.969 145.208 112.101 146.658C112.121 146.912 112.087 147.168 112.001 147.408C111.915 147.648 111.779 147.866 111.601 148.049C111.423 148.231 111.209 148.374 110.972 148.467C110.734 148.559 110.48 148.6 110.226 148.586L92.6124 147.795C92.1972 147.774 91.8019 147.61 91.4935 147.331C91.1851 147.051 90.9825 146.674 90.92 146.263Z" fill="#4CAF4F"/>
<path opacity="0.6" d="M90.92 146.263C90.8524 145.799 90.9681 145.328 91.2426 144.949C91.5171 144.57 91.9286 144.313 92.3894 144.234C95.9567 143.645 104.064 142.448 108.138 143.016C111.179 143.442 111.969 145.208 112.101 146.658C112.121 146.912 112.087 147.168 112.001 147.408C111.915 147.648 111.779 147.866 111.601 148.049C111.423 148.231 111.209 148.374 110.972 148.467C110.734 148.559 110.48 148.6 110.226 148.586L92.6124 147.795C92.1972 147.774 91.8019 147.61 91.4935 147.331C91.1851 147.051 90.9825 146.674 90.92 146.263Z" fill="black"/>
<path d="M101.105 323.511L107.642 328.056L118.577 313.213L112.04 308.678L101.105 323.511Z" fill="#E58A7B"/>
<path d="M85.8629 323.217L92.7644 327.153L102.443 311.458L95.5412 307.521L85.8629 323.217Z" fill="#E58A7B"/>
<path d="M118.567 313.213L112.932 320.863L106.395 316.328L112.03 308.678L118.567 313.213Z" fill="#CF6F64"/>
<path d="M95.5311 307.521L102.443 311.468L97.4566 319.554L90.545 315.607L95.5311 307.521Z" fill="#CF6F64"/>
<path d="M106.618 195.815C106.618 195.815 132.136 228.008 127.343 258.801C123.482 283.668 101.085 317.342 101.085 317.342L90.5551 312.107C97.977 297.218 104.311 281.81 109.506 266.004C111.109 261.097 111.576 255.889 110.874 250.775C110.172 245.66 108.318 240.772 105.453 236.48C92.5212 217.578 71.8066 228.83 85.7413 195.815H106.618Z" fill="#4CAF4F"/>
<path opacity="0.6" d="M106.618 195.815C106.618 195.815 132.136 228.008 127.343 258.801C123.482 283.668 101.085 317.342 101.085 317.342L90.5551 312.107C97.977 297.218 104.311 281.81 109.506 266.004C111.109 261.097 111.576 255.889 110.874 250.775C110.172 245.66 108.318 240.772 105.453 236.48C92.5212 217.578 71.8066 228.83 85.7413 195.815H106.618Z" fill="black"/>
<path opacity="0.4" d="M119.134 216.492L115.425 212.799C115.425 213.093 122.61 257.502 124.627 269.981C125.817 266.336 126.728 262.605 127.353 258.821C129.724 243.714 124.769 228.282 119.134 216.492Z" fill="black"/>
<path d="M118.009 195.815C118.009 195.815 148.736 236.277 149.608 260.536C150.328 280.827 116.165 320.143 116.165 320.143L106.233 313.71C106.233 313.71 126.228 285.789 131.265 262.981C129.319 240.376 88.1736 195.815 88.1736 195.815H118.009Z" fill="#4CAF4F"/>
<path opacity="0.6" d="M118.009 195.815C118.009 195.815 148.736 236.277 149.608 260.536C150.328 280.827 116.165 320.143 116.165 320.143L106.233 313.71C106.233 313.71 126.228 285.789 131.265 262.981C129.319 240.376 88.1736 195.815 88.1736 195.815H118.009Z" fill="black"/>
<path d="M79.9952 147.531C76.7117 148.312 73.5599 160.264 73.5599 160.264L86.4001 168.847C86.4001 168.847 90.6768 159.391 89.1769 155.252C87.6264 150.94 84.1199 146.547 79.9952 147.531Z" fill="#4CAF4F"/>
<path opacity="0.2" d="M82.5085 155.232L81.6166 165.651L86.3899 168.858C87.7079 165.887 88.6837 162.776 89.2985 159.584L82.5085 155.232Z" fill="black"/>
<path d="M121.809 147.764C121.809 147.764 125.6 149.093 118.009 195.805H85.7211C86.2683 182.615 86.2785 174.499 79.9952 147.531C84.5162 146.598 89.0988 145.995 93.707 145.725C98.5888 145.375 103.489 145.375 108.371 145.725C114.675 146.303 121.809 147.764 121.809 147.764Z" fill="#4CAF4F"/>
<path d="M125.093 155.232C125.823 157.261 126.593 159.442 127.404 161.542C128.214 163.643 128.985 165.804 129.805 167.934L132.288 174.306L132.917 175.899L133.241 176.69L133.393 177.086C133.393 177.157 133.393 177.157 133.393 177.147C133.208 176.885 132.965 176.67 132.684 176.518C132.283 176.282 131.831 176.146 131.366 176.122C130.98 176.11 130.596 176.183 130.241 176.335C129.775 176.548 129.775 176.639 129.785 176.629C129.869 176.562 129.944 176.483 130.008 176.396C130.569 175.659 131.055 174.867 131.457 174.032C131.934 173.099 132.39 172.104 132.846 171.1C133.738 169.071 134.559 166.97 135.379 164.85C136.2 162.729 136.981 160.589 137.741 158.428L140.051 151.955L143.953 152.969C143.183 157.596 142.19 162.1 140.994 166.686C140.416 168.969 139.737 171.232 138.967 173.515C138.582 174.661 138.156 175.797 137.67 176.964C137.163 178.23 136.538 179.447 135.805 180.596C135.535 180.983 135.237 181.35 134.913 181.692C134.396 182.252 133.768 182.697 133.069 183.001C132.449 183.267 131.777 183.392 131.103 183.366C130.347 183.338 129.611 183.118 128.964 182.727C128.201 182.25 127.567 181.591 127.12 180.809C126.968 180.546 126.836 180.282 126.745 180.089L126.552 179.704L126.167 178.912L125.397 177.34C124.384 175.229 123.37 173.099 122.488 170.958C121.607 168.817 120.674 166.646 119.803 164.464C118.931 162.283 118.151 160.102 117.411 157.748L125.093 155.232Z" fill="#E58A7B"/>
<path d="M121.809 147.764C125.691 148.688 130.059 160.173 130.059 160.173L118.516 170.004C118.516 170.004 111.047 157.484 112.557 153.355C114.128 149.053 116.742 146.557 121.809 147.764Z" fill="#4CAF4F"/>
<path d="M141.886 148.322L145.939 144.934L148.757 149.327L146.679 152.989C146.679 152.989 143.375 156.033 140.457 154.481C139.993 153.438 139.882 152.273 140.14 151.162C140.398 150.051 141.011 149.054 141.886 148.322Z" fill="#E58A7B"/>
<path d="M153.256 144.944L152.952 146.05L146.537 147.125L145.909 144.934L153.256 144.944Z" fill="#E58A7B"/>
<path d="M116.955 320.66L105.382 313.172L107.459 309.56L120.462 317.565L116.955 320.66Z" fill="#4CAF4F"/>
<path d="M97.2945 326.626C96.2791 326.502 95.3034 326.155 94.4366 325.611C94.4008 325.599 94.3698 325.575 94.3479 325.544C94.3259 325.514 94.3141 325.477 94.3141 325.439C94.3141 325.401 94.3259 325.364 94.3479 325.333C94.3698 325.302 94.4008 325.279 94.4366 325.266C94.7508 325.165 97.4769 324.323 98.2674 324.972C98.3563 325.046 98.4238 325.142 98.463 325.251C98.5022 325.36 98.5116 325.477 98.4903 325.591C98.4763 325.774 98.4158 325.95 98.3147 326.102C98.2136 326.255 98.0752 326.379 97.9127 326.463C97.7229 326.567 97.5107 326.623 97.2945 326.626ZM95.0143 325.51C96.2811 326.159 97.2945 326.392 97.7809 326.149C97.8869 326.09 97.976 326.005 98.0399 325.902C98.1037 325.799 98.1402 325.682 98.1458 325.56C98.1458 325.398 98.1458 325.327 98.0546 325.286C97.6289 324.942 96.1088 325.205 94.994 325.51H95.0143Z" fill="#263238"/>
<path d="M94.5076 325.682C94.4541 325.681 94.4031 325.66 94.3657 325.621C94.3506 325.593 94.3427 325.562 94.3427 325.53C94.3427 325.498 94.3506 325.467 94.3657 325.439C94.3657 325.347 95.0244 323.146 96.0581 322.649C96.1902 322.588 96.3336 322.557 96.4787 322.557C96.6238 322.557 96.7672 322.588 96.8993 322.649C97.0416 322.694 97.1648 322.785 97.2493 322.908C97.3337 323.031 97.3747 323.179 97.3655 323.328C97.2945 324.241 95.4399 325.5 94.5886 325.713L94.5076 325.682ZM96.4736 322.912C96.3751 322.915 96.2783 322.94 96.1899 322.983C95.5615 323.288 95.0447 324.475 94.7913 325.195C95.6832 324.82 96.9094 323.825 96.95 323.267C96.95 323.176 96.9499 323.065 96.7169 322.963C96.641 322.922 96.5588 322.895 96.4736 322.882V322.912Z" fill="#263238"/>
<path d="M111.756 331.009C110.611 331.009 109.02 329.538 108.148 328.635C108.126 328.604 108.114 328.566 108.114 328.528C108.114 328.49 108.126 328.453 108.148 328.422C108.168 328.389 108.197 328.362 108.231 328.344C108.265 328.326 108.303 328.318 108.341 328.32C108.746 328.32 112.263 328.848 112.76 329.842C112.812 329.931 112.84 330.033 112.84 330.136C112.84 330.24 112.812 330.341 112.76 330.43C112.685 330.585 112.573 330.719 112.432 330.818C112.292 330.917 112.129 330.979 111.959 330.999L111.756 331.009ZM108.817 328.777C110.094 330.014 111.219 330.704 111.858 330.623C111.969 330.609 112.076 330.567 112.168 330.501C112.26 330.436 112.334 330.349 112.385 330.248C112.407 330.213 112.419 330.173 112.419 330.131C112.419 330.09 112.407 330.049 112.385 330.014C112.121 329.467 110.246 329 108.817 328.777Z" fill="#263238"/>
<path d="M108.929 328.726C108.701 328.732 108.474 328.715 108.25 328.675C108.218 328.67 108.189 328.658 108.164 328.638C108.139 328.619 108.12 328.593 108.108 328.564C108.093 328.534 108.085 328.501 108.085 328.467C108.085 328.434 108.093 328.401 108.108 328.371C108.169 328.3 109.537 326.646 110.834 326.534C111.201 326.506 111.565 326.622 111.847 326.859C112.243 327.204 112.222 327.508 112.121 327.701C111.868 328.391 110.114 328.726 108.929 328.726ZM108.665 328.351C109.8 328.411 111.614 328.036 111.847 327.539C111.847 327.539 111.929 327.377 111.665 327.153C111.56 327.062 111.438 326.993 111.305 326.951C111.173 326.91 111.033 326.895 110.895 326.91C110.021 327.154 109.243 327.66 108.665 328.361V328.351Z" fill="#263238"/>
<path d="M94.7812 324.586L86.1872 322.151C86.0391 322.106 85.8796 322.118 85.7394 322.183C85.5991 322.249 85.4879 322.364 85.4272 322.507L82.5287 329.03C82.4607 329.197 82.4287 329.377 82.435 329.557C82.4412 329.738 82.4855 329.915 82.565 330.077C82.6444 330.239 82.7572 330.382 82.896 330.497C83.0347 330.612 83.1962 330.697 83.3699 330.745C86.4102 331.536 87.8695 331.76 91.6497 332.845C93.9806 333.494 97.3046 334.702 100.517 335.615C103.73 336.528 104.804 333.393 103.558 332.723C97.9228 329.741 97.4769 327.65 95.9365 325.418C95.6606 325.014 95.2517 324.72 94.7812 324.586Z" fill="#4CAF4F"/>
<path d="M108.381 327.448L101.044 322.375C100.92 322.284 100.766 322.242 100.613 322.257C100.46 322.272 100.318 322.343 100.213 322.456L95.3487 327.691C95.2302 327.826 95.1417 327.985 95.0893 328.158C95.0369 328.33 95.0217 328.511 95.0447 328.69C95.0677 328.868 95.1284 329.04 95.2228 329.193C95.3171 329.346 95.443 329.477 95.5919 329.578C98.1762 331.313 99.5139 332.013 102.747 334.255C104.774 335.635 108.696 338.699 111.432 340.607C114.168 342.514 116.205 339.897 115.232 338.862C110.875 334.205 109.922 331.283 109.202 328.635C109.077 328.154 108.787 327.734 108.381 327.448Z" fill="#4CAF4F"/>
<path d="M102.433 318.012L89.2073 311.427L90.5754 307.836L104.703 314.775L102.433 318.012Z" fill="#4CAF4F"/>
<path d="M85.2346 193.908L84.1199 196.83C84.0084 197.053 84.2719 197.286 84.6468 197.286H118.171C118.465 197.286 118.708 197.144 118.729 196.962L119.012 194.06C119.012 193.867 118.779 193.695 118.465 193.695H85.7616C85.6632 193.685 85.5639 193.7 85.4722 193.737C85.3805 193.774 85.2991 193.833 85.2346 193.908Z" fill="#4CAF4F"/>
<path opacity="0.4" d="M85.2346 193.908L84.1199 196.83C84.0084 197.053 84.2719 197.286 84.6468 197.286H118.171C118.465 197.286 118.708 197.144 118.729 196.962L119.012 194.06C119.012 193.867 118.779 193.695 118.465 193.695H85.7616C85.6632 193.685 85.5639 193.7 85.4722 193.737C85.3805 193.774 85.2991 193.833 85.2346 193.908Z" fill="white"/>
<path d="M90.5146 197.57H89.633C89.4607 197.57 89.3289 197.479 89.339 197.367L89.7546 193.603C89.7546 193.502 89.9167 193.411 90.089 193.411H90.9707C91.143 193.411 91.2747 193.502 91.2646 193.603L90.8491 197.367C90.8389 197.479 90.6869 197.57 90.5146 197.57Z" fill="#4CAF4F"/>
<path d="M111.189 197.57H110.317C110.145 197.57 110.013 197.479 110.023 197.367L110.429 193.603C110.429 193.502 110.601 193.411 110.773 193.411H111.645C111.817 193.411 111.959 193.502 111.939 193.603L111.533 197.367C111.483 197.479 111.371 197.57 111.189 197.57Z" fill="#4CAF4F"/>
<path d="M89.7444 369.391C104.739 369.391 116.894 368.509 116.894 367.422C116.894 366.335 104.739 365.454 89.7444 365.454C74.7499 365.454 62.5945 366.335 62.5945 367.422C62.5945 368.509 74.7499 369.391 89.7444 369.391Z" fill="#F5F5F5"/>
<path d="M106.284 364.642C101.48 363.242 96.1493 361.446 92.9266 359.569C92.8354 359.508 92.734 359.478 92.6428 359.427V337.654H102.362C103.099 337.611 103.793 337.286 104.3 336.748C104.806 336.209 105.089 335.498 105.089 334.758C105.089 334.018 104.806 333.306 104.3 332.767C103.793 332.229 103.099 331.905 102.362 331.861H92.6935V232.614H86.8561V331.861H77.1981C76.8037 331.838 76.4087 331.895 76.0374 332.03C75.6661 332.165 75.3262 332.375 75.0387 332.646C74.7513 332.917 74.5222 333.245 74.3656 333.608C74.2091 333.971 74.1283 334.362 74.1283 334.758C74.1283 335.153 74.2091 335.544 74.3656 335.908C74.5222 336.271 74.7513 336.598 75.0387 336.869C75.3262 337.14 75.6661 337.35 76.0374 337.485C76.4087 337.62 76.8037 337.678 77.1981 337.654H86.8561V359.397C86.7649 359.397 86.6737 359.478 86.5825 359.539C83.3091 361.446 78.0189 363.242 73.2153 364.612C72.8908 364.71 72.6121 364.921 72.4298 365.207C72.2475 365.494 72.1735 365.836 72.2213 366.172C72.269 366.508 72.4354 366.815 72.6902 367.039C72.9451 367.263 73.2715 367.388 73.6105 367.392H105.888C106.212 367.37 106.519 367.237 106.757 367.016C106.995 366.795 107.15 366.499 107.196 366.177C107.243 365.855 107.177 365.527 107.011 365.248C106.845 364.969 106.588 364.755 106.284 364.642Z" fill="#E0E0E0"/>
<path d="M107.773 222.509H71.7357C68.8364 222.509 66.4861 224.862 66.4861 227.764V238.489C66.4861 241.391 68.8364 243.744 71.7357 243.744H107.773C110.673 243.744 113.023 241.391 113.023 238.489V227.764C113.023 224.862 110.673 222.509 107.773 222.509Z" fill="#4CAF4F"/>
<path d="M71.4012 243.754V245.601C71.4012 247.123 73.0531 248.361 75.08 248.361H104.47C106.497 248.361 108.148 247.123 108.148 245.601V243.754H71.4012Z" fill="#4CAF4F"/>
<path opacity="0.3" d="M71.4012 243.754V245.601C71.4012 247.123 73.0531 248.361 75.08 248.361H104.47C106.497 248.361 108.148 247.123 108.148 245.601V243.754H71.4012Z" fill="white"/>
</svg>
