<svg width="18" height="13" viewBox="0 0 18 13" fill="none" xmlns="http://www.w3.org/2000/svg">
<path fill-rule="evenodd" clip-rule="evenodd" d="M15.2011 0.366219C15.9354 0.567729 16.5137 1.16148 16.71 1.91548C17.0667 3.28203 17.0667 6.13333 17.0667 6.13333C17.0667 6.13333 17.0667 8.98454 16.71 10.3512C16.5137 11.1052 15.9354 11.6989 15.2011 11.9005C13.8703 12.2667 8.53333 12.2667 8.53333 12.2667C8.53333 12.2667 3.19641 12.2667 1.8655 11.9005C1.13115 11.6989 0.552824 11.1052 0.356558 10.3512C0 8.98454 0 6.13333 0 6.13333C0 6.13333 0 3.28203 0.356558 1.91548C0.552824 1.16148 1.13115 0.567729 1.8655 0.366219C3.19641 0 8.53333 0 8.53333 0C8.53333 0 13.8703 0 15.2011 0.366219ZM6.93335 3.73328V9.06661L11.2 6.40004L6.93335 3.73328Z" fill="white"/>
</svg>
